<?xml version="1.0" encoding="UTF-8" standalone="no"?>
<!-- Creator: CorelDRAW -->

<svg
   xmlns:dc="http://purl.org/dc/elements/1.1/"
   xmlns:cc="http://creativecommons.org/ns#"
   xmlns:rdf="http://www.w3.org/1999/02/22-rdf-syntax-ns#"
   xmlns:svg="http://www.w3.org/2000/svg"
   xmlns="http://www.w3.org/2000/svg"
   xmlns:sodipodi="http://sodipodi.sourceforge.net/DTD/sodipodi-0.dtd"
   xmlns:inkscape="http://www.inkscape.org/namespaces/inkscape"
   xml:space="preserve"
   width="1727px"
   height="525px"
   style="shape-rendering:geometricPrecision; text-rendering:geometricPrecision; image-rendering:optimizeQuality; fill-rule:evenodd; clip-rule:evenodd"
   viewBox="0 0 1690.3 513.678"
   version="1.1"
   id="svg60"
   sodipodi:docname="C-Bridge-Logo.svg"
   inkscape:version="0.92.3 (2405546, 2018-03-11)"><metadata
   id="metadata64"><rdf:RDF><cc:Work
       rdf:about=""><dc:format>image/svg+xml</dc:format><dc:type
         rdf:resource="http://purl.org/dc/dcmitype/StillImage" /></cc:Work></rdf:RDF></metadata><sodipodi:namedview
   pagecolor="#ffffff"
   bordercolor="#666666"
   borderopacity="1"
   objecttolerance="10"
   gridtolerance="10"
   guidetolerance="10"
   inkscape:pageopacity="0"
   inkscape:pageshadow="2"
   inkscape:window-width="1318"
   inkscape:window-height="742"
   id="namedview62"
   showgrid="false"
   inkscape:zoom="0.37684142"
   inkscape:cx="779.62843"
   inkscape:cy="101.42108"
   inkscape:window-x="0"
   inkscape:window-y="26"
   inkscape:window-maximized="1"
   inkscape:current-layer="svg60" />
 <defs
   id="defs4">
  <style
   type="text/css"
   id="style2">
   <![CDATA[
    .str1 {stroke:#4B0096;stroke-width:2.31175}
    .str2 {stroke:#7688A1;stroke-width:8.15586;stroke-linecap:round}
    .str0 {stroke:#820282;stroke-width:73.3981}
    .fil1 {fill:none}
    .fil2 {fill:#4B0096}
    .fil5 {fill:#7688A1;fill-rule:nonzero}
    .fil0 {fill:#4B0096;fill-rule:nonzero}
    .fil4 {fill:#FFCC00;fill-rule:nonzero}
    .fil3 {fill:white;fill-rule:nonzero}
   ]]>
  </style>
 
  
  
 
   
   
   
   
   
   
   
   
   
   
   
   
   
   
   
   
   
   
   
   
   
   
   
   
   
   
   
   
   
   
   
   
   
   
   
   
   
   
   
   
   
  
    
    
    
    
   
     
     
    </defs>
 <path
   inkscape:connector-curvature="0"
   style="fill:#ffffff;fill-rule:nonzero;fill-opacity:1"
   d="m 653,107.499 h 12.2268 c 55.3306,0 105.603,22.6066 142.021,59.0271 36.4205,36.4193 59.0271,86.6941 59.0271,142.022 v 0.001 c 0,55.3317 -22.6066,105.603 -59.0271,142.024 -36.4182,36.4216 -86.6906,59.0271 -142.021,59.0271 H 653 c -55.3306,0 -105.604,-22.6055 -142.022,-59.0271 -36.4216,-36.4205 -59.0271,-86.6918 -59.0271,-142.024 v -0.001 c 0,-55.3283 22.6055,-105.603 59.0271,-142.022 C 547.3962,130.1056 597.6698,107.499 653,107.499 Z m 12.2268,79.6352 H 653 c -33.3493,0 -63.6945,13.6717 -85.7197,35.6957 -22.024,22.024 -35.6957,52.3704 -35.6957,85.7185 v 10e-4 c 0,33.3493 13.6705,63.6957 35.6957,85.7209 22.0252,22.024 52.3704,35.6957 85.7197,35.6957 h 12.2268 c 33.3493,0 63.6933,-13.6717 85.7185,-35.6957 22.0252,-22.0252 35.6957,-52.3715 35.6957,-85.7209 v -10e-4 c 0,-33.3482 -13.6717,-63.6945 -35.6957,-85.7185 -22.0252,-22.024 -52.3692,-35.6957 -85.7185,-35.6957 z"
   class="fil0"
   id="_420758472" /><rect
   style="fill:none;stroke:#ffffff;stroke-width:73.39810181;stroke-opacity:1"
   ry="161.233"
   rx="161.233"
   height="322.466"
   width="334.69199"
   y="147.317"
   x="36.6991"
   class="fil1 str0"
   id="_420757560" /><rect
   style="fill:#ffffff;stroke:#fff3ff;stroke-width:2.31174994;fill-opacity:1;stroke-opacity:1"
   height="337.47501"
   width="82.300697"
   y="4.0788498"
   x="446.11899"
   class="fil2 str1"
   id="_420757728" /><path
   id="_420758136"
   class="fil3"
   d="m 266.442,308.549 h -35.5501 v 0 l 0.0844,-3.10699 0.25314,-3.07347 0.41611,-3.03648 0.57678,-2.99025 0.73052,-2.93823 0.8854,-2.88853 1.03104,-2.82149 1.17206,-2.75561 1.31307,-2.69203 1.44716,-2.61575 1.57199,-2.53252 1.69798,-2.45623 1.82282,-2.37301 1.93494,-2.2817 2.04821,-2.19038 2.15571,-2.09445 2.2632,-1.99966 2.36261,-1.89564 2.4597,-1.79045 2.54986,-1.67949 2.63886,-1.56737 2.73133,-1.45525 2.80531,-1.33041 2.88738,-1.2102 2.96251,-1.08074 3.02146,-0.94782 3.09081,-0.81373 3.15092,-0.67388 3.2064,-0.53055 3.25032,-0.38143 3.29193,-0.23234 3.3243,-0.0774 v 33.2684 l -1.54887,0.0358 -1.51882,0.1075 -1.49108,0.17569 -1.45871,0.24158 -1.43097,0.30631 -1.40323,0.36988 -1.38011,0.43229 -1.33966,0.48894 -1.30845,0.54904 -1.27955,0.60683 -1.23563,0.6577 -1.20327,0.71664 -1.16512,0.76634 -1.11889,0.8149 -1.07496,0.86228 -1.02642,0.90621 -0.98134,0.95475 -0.92933,0.9929 -0.87615,1.03335 -0.81951,1.06687 -0.76404,1.10617 -0.7097,1.14085 -0.64498,1.16859 -0.58488,1.19633 -0.52245,1.22985 -0.46004,1.25644 -0.39069,1.27493 -0.32595,1.30845 -0.25776,1.33041 -0.18494,1.35584 -0.11443,1.38358 -0.0382,1.40786 v 0 z m 29.5881,27.2451 v 33.2684 0 l -3.3243,-0.0774 -3.29193,-0.23233 -3.25032,-0.38144 -3.2064,-0.53055 -3.15092,-0.67388 -3.09081,-0.81373 -3.02146,-0.94782 -2.96251,-1.08074 -2.88738,-1.2102 -2.80531,-1.33041 -2.73133,-1.45525 -2.63886,-1.56737 -2.54986,-1.67949 -2.4597,-1.79045 -2.36261,-1.89564 -2.2632,-1.99966 -2.15571,-2.09445 -2.04821,-2.19038 -1.93494,-2.2817 -1.82282,-2.37301 -1.69798,-2.45623 -1.57199,-2.53252 -1.44716,-2.61575 -1.31307,-2.69203 -1.17206,-2.75561 -1.03104,-2.82149 -0.8854,-2.88853 -0.73051,-2.93823 -0.57679,-2.99025 -0.41611,-3.03648 -0.25314,-3.07347 -0.0844,-3.10699 h 35.5501 l 0.0382,1.40786 0.11443,1.38358 0.18494,1.35584 0.25776,1.33041 0.32596,1.30845 0.39068,1.27493 0.46004,1.25644 0.52246,1.22985 0.58487,1.19633 0.64498,1.16859 0.70971,1.14085 0.76403,1.10617 0.81951,1.06687 0.87616,1.03335 0.92932,0.9929 0.98134,0.95475 1.02642,0.90621 1.07496,0.86228 1.11889,0.81489 1.16512,0.76635 1.20327,0.71664 1.23563,0.65769 1.27955,0.60684 1.30845,0.54904 1.33966,0.48893 1.38011,0.4323 1.40323,0.36988 1.43097,0.30631 1.45871,0.24157 1.49108,0.1757 1.51882,0.10749 1.54887,0.0358 v 0 z m 271.099,33.2684 h -271.099 v -33.2684 h 271.099 v 0 z M 596.716,308.549 h 35.5501 v 0 l -0.0844,3.10699 -0.25314,3.07347 -0.41611,3.03648 -0.57678,2.99025 -0.73052,2.93823 -0.88424,2.88506 -1.03104,2.82496 -1.17553,2.75907 -1.31076,2.68857 -1.44484,2.61343 -1.57315,2.53483 -1.70145,2.4597 -1.8205,2.36954 -1.93494,2.2817 -2.04821,2.19038 -2.15571,2.09445 -2.26089,1.99735 -2.36145,1.89564 -2.46201,1.79276 -2.54986,1.67949 -2.63886,1.56737 -2.73133,1.45525 -2.80531,1.33041 -2.88738,1.2102 -2.96251,1.08074 -3.02146,0.94782 -3.09081,0.81373 -3.15092,0.67388 -3.2064,0.53055 -3.25032,0.38143 -3.29193,0.23234 -3.3243,0.0774 v -33.2684 l 1.54887,-0.0358 1.51882,-0.1075 1.49108,-0.17569 1.45871,-0.24158 1.43097,-0.30631 1.40323,-0.36988 1.38011,-0.43229 1.33966,-0.48894 1.30845,-0.54904 1.27955,-0.60683 1.23563,-0.6577 1.20327,-0.71664 1.16512,-0.76634 1.11658,-0.81258 1.07381,-0.86229 1.02873,-0.90852 0.98134,-0.95475 0.92932,-0.9929 0.87616,-1.03335 0.82182,-1.07034 0.76288,-1.1027 0.70624,-1.13854 0.64729,-1.1709 0.58719,-1.1998 0.5213,-1.22638 0.45772,-1.25297 0.39184,-1.2784 0.32596,-1.30845 0.25776,-1.33041 0.18494,-1.35584 0.11443,-1.38358 0.0382,-1.40786 v 0 z m -29.5869,-27.2451 v -33.2684 0 l 3.3243,0.0774 3.29193,0.23233 3.25032,0.38144 3.2064,0.53055 3.15092,0.67388 3.09081,0.81373 3.02146,0.94782 2.96251,1.08074 2.88738,1.2102 2.80531,1.33041 2.73133,1.45525 2.63886,1.56737 2.54986,1.67949 2.46201,1.79276 2.36145,1.89564 2.26089,1.99735 2.15571,2.09445 2.04821,2.19038 1.93494,2.2817 1.8205,2.36954 1.70145,2.4597 1.57315,2.53483 1.44484,2.61343 1.31076,2.68857 1.17553,2.75907 1.03104,2.82496 0.88424,2.88506 0.73052,2.93823 0.57678,2.99025 0.41611,3.03648 0.25314,3.07347 0.0844,3.10699 h -35.5501 l -0.0381,-1.40786 -0.11444,-1.38358 -0.18494,-1.35584 -0.25776,-1.33041 -0.32595,-1.30845 -0.39185,-1.2784 -0.45772,-1.25297 -0.5213,-1.22638 -0.58719,-1.1998 -0.64729,-1.1709 -0.70624,-1.13854 -0.76287,-1.1027 -0.82183,-1.07034 -0.87615,-1.03335 -0.92933,-0.9929 -0.98134,-0.95475 -1.02873,-0.90852 -1.07381,-0.86228 -1.11658,-0.81258 -1.16512,-0.76635 -1.20327,-0.71664 -1.23563,-0.65769 -1.27955,-0.60684 -1.30845,-0.54904 -1.33966,-0.48893 -1.38011,-0.4323 -1.40323,-0.36988 -1.43097,-0.30631 -1.45871,-0.24157 -1.49108,-0.1757 -1.51882,-0.10749 -1.54887,-0.0358 v 0 z m -271.099,-33.2684 h 271.099 v 33.2684 h -271.099 v 0 z"
   style="fill:#4d289b;fill-rule:nonzero;fill-opacity:1"
   inkscape:connector-curvature="0" /><path
   id="_4207581361"
   class="fil4"
   d="m 296.03,264.67 c -26.1563,0 -47.3631,19.6464 -47.3631,43.8793 0,24.2329 21.2068,43.8793 47.3631,43.8793 h 271.099 c 26.1563,0 47.362,-19.6464 47.362,-43.8793 0,-24.2329 -21.2057,-43.8793 -47.362,-43.8793 z"
   style="fill:#ffffff;fill-rule:nonzero;fill-opacity:1"
   inkscape:connector-curvature="0" /><path
   class="fil5"
   d="m 1156.02,105.58 c -1.2957,0.61839 -2.803,1.15934 -4.5033,1.6425 -1.7199,0.46351 -3.5555,0.83107 -5.5262,1.0819 -1.9523,0.27048 -3.9427,0.40571 -5.9713,0.40571 -6.1261,-0.0196 -11.4212,-1.33388 -15.8459,-3.96118 -4.4258,-2.62846 -7.8264,-6.474058 -10.2041,-11.518298 -2.3961,-5.04308 -3.6133,-11.2074 -3.6329,-18.4928 0.02,-5.77822 0.7733,-10.8225 2.2609,-15.1501 1.4876,-4.32875 3.5751,-7.94317 6.2614,-10.8421 2.6862,-2.89778 5.8556,-5.06273 9.4689,-6.5122 3.6329,-1.44947 7.6137,-2.1638 11.9229,-2.1638 3.3047,0.01965 6.2614,0.347918 8.8505,0.966312 2.6088,0.618393 4.8316,1.37202 6.6868,2.28054 l 2.8989,-11.0155 c -0.8114,-0.445012 -2.0482,-0.927012 -3.7103,-1.46912 -1.6622,-0.54095 -3.7682,-1.00446 -6.2996,-1.39052 -2.5325,-0.387218 -5.4881,-0.599899 -8.8898,-0.618393 -4.9275,0 -9.5845,0.656537 -13.9711,1.95112 -4.3877,1.29458 -8.387,3.2272 -12.0015,5.77822 -3.6133,2.55102 -6.7249,5.70078 -9.3522,9.44928 -2.6285,3.74966 -4.6582,8.09691 -6.088,13.0059 -1.4495,4.90785 -2.1638,10.3971 -2.1834,16.4261 0.02,7.09129 1.0241,13.392 2.9763,18.9182 1.9708,5.50775 4.7726,10.184399 8.4056,14.010399 3.6329,3.82595 7.9813,6.72488 13.0256,8.7153 5.043,1.99042 10.6664,2.97638 16.87,2.99487 3.2272,-0.0185 6.1642,-0.19303 8.8701,-0.54095 2.6863,-0.36641 5.0431,-0.83107 7.0728,-1.39052 2.0483,-0.5606 3.6711,-1.14085 4.9275,-1.77889 l -2.3186,-10.782 z"
   id="path16"
   style="fill:#ffffff;fill-rule:nonzero;fill-opacity:1"
   inkscape:connector-curvature="0" /><path
   id="1"
   class="fil5"
   d="m 1215.5,106.739 c -2.0482,0.88887 -4.3865,1.6032 -6.9757,2.1638 -2.5892,0.54095 -5.643,0.83107 -9.1407,0.85072 -2.5313,0.0185 -4.9471,-0.34791 -7.2277,-1.0819 -2.2793,-0.71548 -4.3091,-1.87483 -6.1064,-3.43988 -1.7963,-1.56621 -3.2076,-3.61442 -4.2698,-6.145786 -1.0635,-2.51172 -1.6622,-5.58519 -1.7593,-9.15915 h 40.5816 c 0.1156,-0.81258 0.2127,-1.6818 0.2705,-2.62846 0.058,-0.928168 0.077,-1.95227 0.077,-3.05382 0,-3.16941 -0.2901,-6.26022 -0.8888,-9.25625 -0.5988,-2.99487 -1.5269,-5.77822 -2.7822,-8.36738 -1.2761,-2.58916 -2.8805,-4.8697 -4.8709,-6.82198 -1.9708,-1.97077 -4.3472,-3.49768 -7.0913,-4.59923 -2.7637,-1.10155 -5.9331,-1.66099 -9.5267,-1.68064 -4.5229,0.01965 -8.5801,0.927012 -12.117,2.6666 -3.5555,1.75809 -6.57,4.19352 -9.0436,7.30513 -2.4735,3.11046 -4.3484,6.74338 -5.6429,10.8594 -1.2946,4.13572 -1.9327,8.58006 -1.9523,13.3735 0,4.8882 0.6958,9.31404 2.0494,13.275196 1.3523,3.96234 3.3231,7.36292 5.9319,10.2041 2.5892,2.83999 5.7782,5.02343 9.5267,6.55034 3.7693,1.52691 8.0588,2.30019 12.8707,2.31869 4.3669,-0.0381 8.2703,-0.40571 11.7102,-1.13969 3.4399,-0.71548 6.3007,-1.62285 8.5801,-2.68625 l -2.2031,-9.50707 z m -35.3628,-26.436 c 0.1734,-1.89448 0.5791,-3.8271 1.2171,-5.81752 0.6184,-1.99042 1.527,-3.82595 2.7048,-5.54589 1.179,-1.71994 2.6678,-3.11046 4.4455,-4.15422 1.7777,-1.06341 3.9034,-1.624 6.3573,-1.6425 2.5707,0.01849 4.7148,0.560599 6.4544,1.6032 1.7396,1.04376 3.1116,2.41578 4.1357,4.09758 1.0045,1.70029 1.7385,3.55547 2.1638,5.54589 0.4254,1.99042 0.6184,3.96118 0.5803,5.91346 z"
   style="fill:#ffffff;fill-rule:nonzero;fill-opacity:1"
   inkscape:connector-curvature="0" /><path
   id="12"
   class="fil5"
   d="m 1286.69,79.723 c -0.039,-4.90785 -0.6577,-9.04357 -1.8945,-12.406 -1.2368,-3.36244 -2.8793,-6.06834 -4.9078,-8.09691 -2.0494,-2.01007 -4.3103,-3.47803 -6.8024,-4.38655 -2.4735,-0.888868 -4.9668,-1.33388 -7.4981,-1.31423 -2.4158,0.01965 -4.6189,0.328269 -6.6671,0.927012 -2.0286,0.618393 -3.8653,1.44947 -5.4881,2.47357 -1.6425,1.04376 -3.0538,2.2031 -4.271,3.49768 -1.1975,1.29574 -2.1834,2.62846 -2.937,4.00048 h -0.348 l -0.6958,-9.50707 H 1233.47 c 0.077,1.79623 0.1549,3.63292 0.2312,5.50659 0.059,1.87483 0.1167,3.8271 0.1745,5.87531 0.038,2.04821 0.058,4.23166 0.058,6.58964 v 45.914798 h 13.4498 V 80.303222 c 0.02,-2.55102 0.4254,-4.81191 1.2171,-6.74453 0.7733,-1.95227 1.8367,-3.59477 3.1498,-4.909 1.3142,-1.31307 2.7834,-2.31869 4.3877,-2.99487 1.6229,-0.676187 3.2654,-1.00446 4.9275,-1.00446 2.2805,0.01849 4.212,0.463506 5.7782,1.33272 1.5454,0.870374 2.8019,2.08751 3.7485,3.61442 0.9467,1.54541 1.6229,3.32314 2.0286,5.31356 0.4253,2.01007 0.638,4.15537 0.6184,6.43591 V 118.79737 H 1286.69 V 79.722972 Z"
   style="fill:#ffffff;fill-rule:nonzero;fill-opacity:1"
   inkscape:connector-curvature="0" /><path
   id="123"
   class="fil5"
   d="m 1306.28,54.911 h -9.0436 v 10.0873 h 9.0436 v 33.0442 c 0,4.15537 0.3872,7.61375 1.1593,10.4167 0.7733,2.78219 1.972,5.02343 3.5948,6.74338 1.4102,1.56621 3.2076,2.78335 5.3725,3.61442 2.1442,0.83107 4.5796,1.25528 7.2658,1.25528 2.2609,0 4.2895,-0.13524 6.0487,-0.40571 1.7581,-0.27048 3.2272,-0.63689 4.3866,-1.10155 l -0.4635,-10.3185 c -0.7929,0.23117 -1.6437,0.42536 -2.5707,0.57909 -0.9085,0.15489 -2.0285,0.23233 -3.3428,0.23233 -2.8215,0 -4.8893,-0.96631 -6.1839,-2.89893 -1.3142,-1.93262 -1.9523,-4.8697 -1.9326,-8.812388 v -32.3483 h 15.1894 v -10.0873 h -15.1894 v -15.7696 l -13.3342,4.17502 v 11.5946 z"
   style="fill:#ffffff;fill-rule:nonzero;fill-opacity:1"
   inkscape:connector-curvature="0" /><path
   id="1234"
   class="fil5"
   d="m 1378.52,53.8672 c -0.5606,-0.115588 -1.1212,-0.212681 -1.6425,-0.270475 -0.5213,-0.05779 -1.1015,-0.07744 -1.7199,-0.07744 -2.3384,0.01965 -4.5993,0.54095 -6.7446,1.5847 -2.1638,1.06225 -4.0964,2.55102 -5.7967,4.50213 -1.7003,1.95227 -3.0538,4.29061 -4.0386,7.01501 h -0.4647 l -0.4635,-11.7102 h -11.7102 c 0.1734,2.93708 0.2901,5.98975 0.3664,9.1788 0.059,3.16941 0.097,6.60929 0.097,10.3 v 44.407595 h 13.4498 V 84.940621 c 0.02,-3.72885 0.6184,-6.99536 1.8171,-9.75905 1.1778,-2.76254 2.8793,-4.9275 5.0627,-6.45441 2.2031,-1.54541 4.8119,-2.31869 7.8461,-2.33834 0.7536,0 1.4483,0.01965 2.106,0.07744 0.638,0.05779 1.2564,0.154887 1.8355,0.270475 v -12.8695 z"
   style="fill:#ffffff;fill-rule:nonzero;fill-opacity:1"
   inkscape:connector-curvature="0" /><path
   id="12345"
   class="fil5"
   d="m 1433.48,106.739 c -2.0482,0.88887 -4.3865,1.6032 -6.9757,2.1638 -2.5892,0.54095 -5.643,0.83107 -9.1407,0.85072 -2.5313,0.0185 -4.9471,-0.34791 -7.2277,-1.0819 -2.2793,-0.71548 -4.3091,-1.87483 -6.1064,-3.43988 -1.7963,-1.56621 -3.2076,-3.61442 -4.2698,-6.145786 -1.0635,-2.51172 -1.6622,-5.58519 -1.7593,-9.15915 h 40.5816 c 0.1156,-0.81258 0.2127,-1.6818 0.2705,-2.62846 0.058,-0.928168 0.077,-1.95227 0.077,-3.05382 0,-3.16941 -0.2901,-6.26022 -0.8888,-9.25625 -0.5988,-2.99487 -1.5269,-5.77822 -2.7822,-8.36738 -1.2761,-2.58916 -2.8805,-4.8697 -4.8709,-6.82198 -1.9708,-1.97077 -4.3472,-3.49768 -7.0913,-4.59923 -2.7637,-1.10155 -5.9331,-1.66099 -9.5267,-1.68064 -4.5229,0.01965 -8.5801,0.927012 -12.117,2.6666 -3.5555,1.75809 -6.57,4.19352 -9.0436,7.30513 -2.4735,3.11046 -4.3484,6.74338 -5.6429,10.8594 -1.2946,4.13572 -1.9327,8.58006 -1.9523,13.3735 0,4.8882 0.6958,9.31404 2.0494,13.275196 1.3523,3.96234 3.3231,7.36292 5.9319,10.2041 2.5892,2.83999 5.7782,5.02343 9.5267,6.55034 3.7693,1.52691 8.0588,2.30019 12.8707,2.31869 4.3669,-0.0381 8.2703,-0.40571 11.7102,-1.13969 3.4399,-0.71548 6.3007,-1.62285 8.5801,-2.68625 l -2.2031,-9.50707 z m -35.3628,-26.436 c 0.1734,-1.89448 0.5791,-3.8271 1.2171,-5.81752 0.6184,-1.99042 1.527,-3.82595 2.7048,-5.54589 1.179,-1.71994 2.6678,-3.11046 4.4455,-4.15422 1.7777,-1.06341 3.9034,-1.624 6.3573,-1.6425 2.5707,0.01849 4.7148,0.560599 6.4544,1.6032 1.7396,1.04376 3.1116,2.41578 4.1357,4.09758 1.0045,1.70029 1.7385,3.55547 2.1638,5.54589 0.4254,1.99042 0.6184,3.96118 0.5803,5.91346 z"
   style="fill:#ffffff;fill-rule:nonzero;fill-opacity:1"
   inkscape:connector-curvature="0" /><path
   id="123456"
   class="fil5"
   d="m 1471.05,54.911 v 10.0873 h 8.5801 v 53.7991 h 13.4498 V 64.9983 h 13.9133 V 54.911 h -14.03 v -3.47918 c 0,-2.1638 0.1745,-4.21201 0.5224,-6.14463 0.3664,-1.93262 0.9663,-3.63292 1.7974,-5.14018 0.8311,-1.48877 1.9511,-2.6666 3.3624,-3.51733 1.3906,-0.869218 3.1302,-1.29458 5.2177,-1.31423 1.5454,0 2.8596,0.135237 3.9415,0.367568 1.0819,0.250825 2.0482,0.54095 2.8989,0.908518 l 1.3917,-10.3197 c -1.1593,-0.483156 -2.551,-0.888868 -4.1739,-1.21714 -1.624,-0.329424 -3.4792,-0.502806 -5.5655,-0.522456 -1.7593,0 -3.537,0.193031 -5.3725,0.580249 -1.8171,0.386062 -3.5948,1.02411 -5.3332,1.89332 -1.7396,0.869218 -3.344,2.01007 -4.8316,3.43988 -1.7777,1.81704 -3.1694,3.76815 -4.1554,5.87416 -0.9848,2.10716 -1.7003,4.25246 -2.1256,6.43591 -0.4439,2.2031 -0.6947,4.32875 -0.7918,6.41511 -0.097,2.06786 -0.1352,3.98083 -0.1156,5.74008 h -8.58 z"
   style="fill:#ffffff;fill-rule:nonzero;fill-opacity:1"
   inkscape:connector-curvature="0" /><path
   id="1234567"
   class="fil5"
   d="m 1542.47,53.5193 c -4.2513,0 -8.2125,0.753631 -11.8454,2.24124 -3.6526,1.48877 -6.8416,3.67222 -9.566,6.53185 -2.7441,2.87929 -4.8697,6.41626 -6.3966,10.5901 -1.5269,4.19352 -2.3187,8.98577 -2.3384,14.3768 0.02,5.15983 0.7733,9.7787 2.2413,13.837 1.4691,4.05828 3.5173,7.47851 6.1458,10.3 2.6469,2.82149 5.7389,4.98529 9.2759,6.45441 3.5358,1.46796 7.3814,2.2031 11.5564,2.22159 2.8977,0 5.777,-0.40571 8.6378,-1.21714 2.8597,-0.81142 5.5459,-2.06786 8.0969,-3.7878 2.5511,-1.70029 4.8119,-3.88374 6.7827,-6.53185 1.9904,-2.6666 3.5358,-5.83601 4.657,-9.52672 1.1397,-3.67106 1.72,-7.90387 1.7396,-12.6765 -0.02,-4.909 -0.6958,-9.39149 -2.0678,-13.392 -1.3524,-4.01898 -3.3243,-7.47851 -5.8557,-10.3578 -2.551,-2.89893 -5.584,-5.12168 -9.1407,-6.68674 -3.5554,-1.56505 -7.5363,-2.35683 -11.9229,-2.37648 z m 15.1894,33.1609 c 0,3.20755 -0.3676,6.22208 -1.0831,9.02392 -0.7339,2.803 -1.7777,5.27657 -3.1497,7.42072 -1.372,2.12565 -3.0145,3.80745 -4.9657,5.00494 -1.9326,1.21829 -4.1357,1.83669 -6.5711,1.85518 -2.4736,-0.0185 -4.6755,-0.63689 -6.6278,-1.83553 -1.9326,-1.21714 -3.5948,-2.87929 -4.9471,-5.00494 -1.3721,-2.12565 -2.3962,-4.57958 -3.1117,-7.34327 -0.7143,-2.78219 -1.0819,-5.73892 -1.0819,-8.88984 0,-2.22159 0.1746,-4.44434 0.541,-6.64744 0.3872,-2.22159 0.9663,-4.32875 1.7396,-6.31917 0.7917,-1.99042 1.8159,-3.76815 3.0526,-5.31356 1.2565,-1.54656 2.7441,-2.7637 4.4837,-3.65257 1.7592,-0.908518 3.7681,-1.35237 6.0683,-1.37202 2.2413,0.01965 4.2317,0.483156 5.9516,1.39167 1.72,0.888868 3.1891,2.12565 4.4259,3.69071 1.2171,1.56505 2.2216,3.3243 3.0145,5.31471 0.7721,1.97077 1.3524,4.05712 1.7199,6.22208 0.3664,2.1638 0.541,4.32875 0.541,6.45441 z"
   style="fill:#ffffff;fill-rule:nonzero;fill-opacity:1"
   inkscape:connector-curvature="0" /><path
   id="12345678"
   class="fil5"
   d="m 1616.91,53.8672 c -0.5606,-0.115588 -1.1212,-0.212681 -1.6425,-0.270475 -0.5213,-0.05779 -1.1015,-0.07744 -1.7199,-0.07744 -2.3384,0.01965 -4.5993,0.54095 -6.7446,1.5847 -2.1638,1.06225 -4.0964,2.55102 -5.7967,4.50213 -1.7003,1.95227 -3.0538,4.29061 -4.0386,7.01501 h -0.4647 l -0.4635,-11.7102 h -11.7102 c 0.1734,2.93708 0.2901,5.98975 0.3664,9.1788 0.059,3.16941 0.097,6.60929 0.097,10.3 v 44.407595 h 13.4498 V 84.940621 c 0.02,-3.72885 0.6184,-6.99536 1.8171,-9.75905 1.1778,-2.76254 2.8793,-4.9275 5.0627,-6.45441 2.2031,-1.54541 4.8119,-2.31869 7.8461,-2.33834 0.7536,0 1.4483,0.01965 2.106,0.07744 0.638,0.05779 1.2564,0.154887 1.8355,0.270475 v -12.8695 z"
   style="fill:#ffffff;fill-rule:nonzero;fill-opacity:1"
   inkscape:connector-curvature="0" /><polygon
   id="123456789"
   class="fil5"
   points="1100.94,233.164 1114.39,233.164 1114.39,144.349 1100.94,144.349 "
   style="fill:#ffffff;fill-rule:nonzero;fill-opacity:1" /><path
   id="12345678910"
   class="fil5"
   d="m 1184.89,194.09 c -0.039,-4.90785 -0.6577,-9.04357 -1.8945,-12.406 -1.2368,-3.36244 -2.8793,-6.06834 -4.9078,-8.09691 -2.0494,-2.01007 -4.3103,-3.47803 -6.8024,-4.38655 -2.4735,-0.88887 -4.9668,-1.33388 -7.4981,-1.31423 -2.4158,0.0196 -4.6189,0.32827 -6.6671,0.92701 -2.0286,0.61839 -3.8653,1.44947 -5.4881,2.47357 -1.6425,1.04376 -3.0538,2.2031 -4.271,3.49768 -1.1975,1.29574 -2.1834,2.62846 -2.937,4.00048 h -0.348 l -0.6958,-9.50707 H 1131.67 c 0.077,1.79623 0.1549,3.63292 0.2312,5.50659 0.059,1.87483 0.1167,3.8271 0.1745,5.87531 0.038,2.04821 0.058,4.23166 0.058,6.58964 v 45.9148 h 13.4498 v -38.4941 c 0.02,-2.55102 0.4254,-4.81191 1.2171,-6.74453 0.7733,-1.95227 1.8367,-3.59477 3.1498,-4.909 1.3142,-1.31307 2.7834,-2.31869 4.3877,-2.99487 1.6229,-0.67619 3.2654,-1.00446 4.9275,-1.00446 2.2805,0.0185 4.212,0.46351 5.7782,1.33272 1.5454,0.87038 2.8019,2.08751 3.7485,3.61442 0.9467,1.54541 1.6229,3.32314 2.0286,5.31356 0.4253,2.01007 0.638,4.15537 0.6184,6.43591 v 37.4504 h 13.4509 v -39.0744 z"
   style="fill:#ffffff;fill-rule:nonzero;fill-opacity:1"
   inkscape:connector-curvature="0" /><path
   id="1234567891011"
   class="fil5"
   d="m 1254.57,194.09 c -0.039,-4.90785 -0.6577,-9.04357 -1.8945,-12.406 -1.2368,-3.36244 -2.8793,-6.06834 -4.9078,-8.09691 -2.0494,-2.01007 -4.3103,-3.47803 -6.8024,-4.38655 -2.4735,-0.88887 -4.9668,-1.33388 -7.4981,-1.31423 -2.4158,0.0196 -4.6189,0.32827 -6.6671,0.92701 -2.0286,0.61839 -3.8653,1.44947 -5.4881,2.47357 -1.6425,1.04376 -3.0538,2.2031 -4.271,3.49768 -1.1975,1.29574 -2.1834,2.62846 -2.937,4.00048 h -0.348 l -0.6958,-9.50707 H 1201.35 c 0.077,1.79623 0.1549,3.63292 0.2312,5.50659 0.059,1.87483 0.1167,3.8271 0.1745,5.87531 0.038,2.04821 0.058,4.23166 0.058,6.58964 v 45.9148 h 13.4498 v -38.4941 c 0.02,-2.55102 0.4254,-4.81191 1.2171,-6.74453 0.7733,-1.95227 1.8367,-3.59477 3.1498,-4.909 1.3142,-1.31307 2.7834,-2.31869 4.3877,-2.99487 1.6229,-0.67619 3.2654,-1.00446 4.9275,-1.00446 2.2805,0.0185 4.212,0.46351 5.7782,1.33272 1.5454,0.87038 2.8019,2.08751 3.7485,3.61442 0.9467,1.54541 1.6229,3.32314 2.0286,5.31356 0.4253,2.01007 0.638,4.15537 0.6184,6.43591 v 37.4504 h 13.4509 v -39.0744 z"
   style="fill:#ffffff;fill-rule:nonzero;fill-opacity:1"
   inkscape:connector-curvature="0" /><path
   id="123456789101112"
   class="fil5"
   d="m 1297.59,167.886 c -4.2513,0 -8.2125,0.75363 -11.8454,2.24124 -3.6526,1.48877 -6.8416,3.67222 -9.566,6.53185 -2.7441,2.87929 -4.8697,6.41626 -6.3966,10.5901 -1.5269,4.19352 -2.3187,8.98577 -2.3384,14.3768 0.02,5.15983 0.7733,9.7787 2.2413,13.837 1.4691,4.05828 3.5173,7.47851 6.1458,10.3 2.6469,2.82149 5.7389,4.98529 9.2759,6.45441 3.5358,1.46796 7.3814,2.2031 11.5564,2.22159 2.8977,0 5.777,-0.40571 8.6378,-1.21714 2.8597,-0.81142 5.5459,-2.06786 8.0969,-3.7878 2.5511,-1.70029 4.8119,-3.88374 6.7827,-6.53185 1.9904,-2.6666 3.5358,-5.83601 4.657,-9.52672 1.1397,-3.67106 1.72,-7.90387 1.7396,-12.6765 -0.02,-4.909 -0.6958,-9.39149 -2.0678,-13.392 -1.3524,-4.01898 -3.3243,-7.47851 -5.8557,-10.3578 -2.551,-2.89893 -5.584,-5.12168 -9.1407,-6.68674 -3.5554,-1.56505 -7.5363,-2.35683 -11.9229,-2.37648 z m 15.1894,33.1609 c 0,3.20755 -0.3676,6.22208 -1.0831,9.02392 -0.7339,2.803 -1.7777,5.27657 -3.1497,7.42072 -1.372,2.12565 -3.0145,3.80745 -4.9657,5.00494 -1.9326,1.21829 -4.1357,1.83669 -6.5711,1.85518 -2.4736,-0.0185 -4.6755,-0.63689 -6.6278,-1.83553 -1.9326,-1.21714 -3.5948,-2.87929 -4.9471,-5.00494 -1.3721,-2.12565 -2.3962,-4.57958 -3.1117,-7.34327 -0.7143,-2.78219 -1.0819,-5.73892 -1.0819,-8.88984 0,-2.22159 0.1746,-4.44434 0.541,-6.64744 0.3872,-2.22159 0.9663,-4.32875 1.7396,-6.31917 0.7917,-1.99042 1.8159,-3.76815 3.0526,-5.31356 1.2565,-1.54656 2.7441,-2.7637 4.4837,-3.65257 1.7592,-0.90852 3.7681,-1.35237 6.0683,-1.37202 2.2413,0.0197 4.2317,0.48316 5.9516,1.39167 1.72,0.88887 3.1891,2.12565 4.4259,3.69071 1.2171,1.56505 2.2216,3.3243 3.0145,5.31471 0.7721,1.97077 1.3524,4.05712 1.7199,6.22208 0.3664,2.1638 0.541,4.32875 0.541,6.45441 z"
   style="fill:#ffffff;fill-rule:nonzero;fill-opacity:1"
   inkscape:connector-curvature="0" /><path
   id="12345678910111213"
   class="fil5"
   d="m 1377.01,169.278 -10.3197,34.0879 c -0.8114,2.7637 -1.5847,5.4881 -2.3187,8.1547 -0.7351,2.64811 -1.3917,5.31471 -1.9719,7.96167 h -0.3479 c -0.5791,-2.6666 -1.2172,-5.33321 -1.9315,-8.01946 -0.6958,-2.70475 -1.4888,-5.4303 -2.358,-8.21249 l -10.4352,-33.9723 h -14.4935 l 22.3777,63.8864 h 12.8707 l 22.9568,-63.8864 h -14.0289 z"
   style="fill:#ffffff;fill-rule:nonzero;fill-opacity:1"
   inkscape:connector-curvature="0" /><path
   id="1234567891011121314"
   class="fil5"
   d="m 1445.77,193.859 c 0.02,-3.42139 -0.3479,-6.68674 -1.1016,-9.7787 -0.7732,-3.11162 -2.0482,-5.87416 -3.8456,-8.28994 -1.8158,-2.43543 -4.2709,-4.3484 -7.3814,-5.75857 -3.1116,-1.39167 -6.9953,-2.12565 -11.672,-2.1453 -2.8793,0.0196 -5.5852,0.25083 -8.1558,0.73398 -2.5695,0.48316 -4.9079,1.1212 -7.0335,1.93262 -2.106,0.79293 -3.9231,1.6818 -5.45,2.6666 l 2.7834,8.92798 c 1.372,-0.88887 2.8793,-1.68064 4.5599,-2.33834 1.6818,-0.65654 3.4595,-1.15934 5.3344,-1.52691 1.8551,-0.34676 3.7288,-0.54095 5.6418,-0.54095 2.551,0.0197 4.6582,0.36757 6.281,1.02411 1.6229,0.65769 2.8989,1.54656 3.8075,2.62846 0.9073,1.0819 1.565,2.26089 1.9511,3.53698 0.4057,1.27493 0.638,2.53137 0.734,3.76815 0.077,1.23679 0.1167,2.33834 0.097,3.30465 -5.4881,0 -10.4352,0.50165 -14.8218,1.48761 -4.3866,0.98596 -8.1362,2.45392 -11.2467,4.44434 -3.1117,1.97077 -5.4881,4.44434 -7.1503,7.42072 -1.6425,2.97638 -2.4735,6.43476 -2.4932,10.4156 0,2.49322 0.4254,4.85121 1.2564,7.0728 0.8311,2.2424 2.0483,4.21316 3.6526,5.95276 1.6032,1.73844 3.5751,3.11046 5.8938,4.11607 2.3384,0.98481 4.9853,1.50726 7.9813,1.52576 2.6666,-0.0185 5.1402,-0.40571 7.3815,-1.13969 2.2609,-0.75363 4.2709,-1.77774 6.029,-3.09197 1.7592,-1.29458 3.2469,-2.78219 4.4443,-4.46399 h 0.348 l 0.9281,7.42072 h 12.1748 c -0.3872,-2.12565 -0.6577,-4.48364 -0.7732,-7.11094 -0.1168,-2.62846 -0.1746,-5.31471 -0.1549,-8.07841 V 193.859 Z m -13.1018,17.7392 c -0.02,2.49322 -0.638,4.71481 -1.8355,6.66709 -1.1987,1.95227 -2.7834,3.47803 -4.7934,4.59923 -2.0089,1.1212 -4.2317,1.70029 -6.7053,1.71994 -1.6806,0 -3.2272,-0.34792 -4.657,-1.0819 -1.4102,-0.71549 -2.551,-1.81704 -3.4006,-3.3243 -0.8703,-1.50726 -1.3142,-3.43988 -1.3338,-5.79671 0.02,-2.26089 0.4635,-4.17502 1.3523,-5.75857 0.8889,-1.56621 2.0875,-2.84114 3.6144,-3.8456 1.5258,-1.00561 3.2457,-1.75924 5.198,-2.31984 1.9511,-0.54095 4.0005,-0.90736 6.1446,-1.12004 2.1453,-0.21268 4.2907,-0.30977 6.4163,-0.29012 v 10.5508 z"
   style="fill:#ffffff;fill-rule:nonzero;fill-opacity:1"
   inkscape:connector-curvature="0" /><path
   id="123456789101112131415"
   class="fil5"
   d="m 1465.36,169.278 h -9.0436 v 10.0873 h 9.0436 v 33.0442 c 0,4.15537 0.3872,7.61375 1.1593,10.4167 0.7733,2.78219 1.972,5.02343 3.5948,6.74338 1.4102,1.56621 3.2076,2.78335 5.3725,3.61442 2.1442,0.83107 4.5796,1.25528 7.2658,1.25528 2.2609,0 4.2895,-0.13524 6.0487,-0.40571 1.7581,-0.27048 3.2272,-0.63689 4.3866,-1.10155 l -0.4635,-10.3185 c -0.7929,0.23117 -1.6437,0.42536 -2.5707,0.57909 -0.9085,0.15489 -2.0285,0.23233 -3.3428,0.23233 -2.8215,0 -4.8893,-0.96631 -6.1839,-2.89893 -1.3142,-1.93262 -1.9523,-4.8697 -1.9326,-8.81239 v -32.3483 h 15.1894 v -10.0873 h -15.1894 v -15.7696 l -13.3342,4.17502 v 11.5946 z"
   style="fill:#ffffff;fill-rule:nonzero;fill-opacity:1"
   inkscape:connector-curvature="0" /><path
   id="12345678910111213141516"
   class="fil5"
   d="m 1520.09,151.653 c -0.02,-1.52576 -0.3479,-2.87929 -0.9848,-4.05828 -0.638,-1.17784 -1.5466,-2.106 -2.7059,-2.78219 -1.1593,-0.67619 -2.5117,-1.02411 -4.0779,-1.04376 -1.5651,0.0197 -2.9175,0.36757 -4.0965,1.04376 -1.1789,0.67619 -2.106,1.60435 -2.7637,2.78219 -0.6761,1.17899 -1.0044,2.53252 -1.0241,4.05828 0.02,1.44947 0.348,2.74405 0.986,3.92304 0.638,1.15934 1.5454,2.08751 2.7047,2.78335 1.1605,0.69584 2.5326,1.0426 4.078,1.06225 1.6228,-0.0196 3.0341,-0.36641 4.2131,-1.06225 1.179,-0.69584 2.0679,-1.624 2.7048,-2.78335 0.638,-1.17899 0.9663,-2.47357 0.9663,-3.92304 z m -1.1593,17.6248 h -13.4498 v 63.8864 h 13.4498 z"
   style="fill:#ffffff;fill-rule:nonzero;fill-opacity:1"
   inkscape:connector-curvature="0" /><path
   id="1234567891011121314151617"
   class="fil5"
   d="m 1562.29,167.886 c -4.2513,0 -8.2125,0.75363 -11.8454,2.24124 -3.6526,1.48877 -6.8416,3.67222 -9.566,6.53185 -2.7441,2.87929 -4.8697,6.41626 -6.3966,10.5901 -1.5269,4.19352 -2.3187,8.98577 -2.3384,14.3768 0.02,5.15983 0.7733,9.7787 2.2413,13.837 1.4691,4.05828 3.5173,7.47851 6.1458,10.3 2.6469,2.82149 5.7389,4.98529 9.2759,6.45441 3.5358,1.46796 7.3814,2.2031 11.5564,2.22159 2.8977,0 5.777,-0.40571 8.6378,-1.21714 2.8597,-0.81142 5.5459,-2.06786 8.0969,-3.7878 2.5511,-1.70029 4.8119,-3.88374 6.7827,-6.53185 1.9904,-2.6666 3.5358,-5.83601 4.657,-9.52672 1.1397,-3.67106 1.72,-7.90387 1.7396,-12.6765 -0.02,-4.909 -0.6958,-9.39149 -2.0678,-13.392 -1.3524,-4.01898 -3.3243,-7.47851 -5.8557,-10.3578 -2.551,-2.89893 -5.584,-5.12168 -9.1407,-6.68674 -3.5554,-1.56505 -7.5363,-2.35683 -11.9229,-2.37648 z m 15.1894,33.1609 c 0,3.20755 -0.3676,6.22208 -1.0831,9.02392 -0.7339,2.803 -1.7777,5.27657 -3.1497,7.42072 -1.372,2.12565 -3.0145,3.80745 -4.9657,5.00494 -1.9326,1.21829 -4.1357,1.83669 -6.5711,1.85518 -2.4736,-0.0185 -4.6755,-0.63689 -6.6278,-1.83553 -1.9326,-1.21714 -3.5948,-2.87929 -4.9471,-5.00494 -1.3721,-2.12565 -2.3962,-4.57958 -3.1117,-7.34327 -0.7143,-2.78219 -1.0819,-5.73892 -1.0819,-8.88984 0,-2.22159 0.1746,-4.44434 0.541,-6.64744 0.3872,-2.22159 0.9663,-4.32875 1.7396,-6.31917 0.7917,-1.99042 1.8159,-3.76815 3.0526,-5.31356 1.2565,-1.54656 2.7441,-2.7637 4.4837,-3.65257 1.7592,-0.90852 3.7681,-1.35237 6.0683,-1.37202 2.2413,0.0197 4.2317,0.48316 5.9516,1.39167 1.72,0.88887 3.1891,2.12565 4.4259,3.69071 1.2171,1.56505 2.2216,3.3243 3.0145,5.31471 0.7721,1.97077 1.3524,4.05712 1.7199,6.22208 0.3664,2.1638 0.541,4.32875 0.541,6.45441 z"
   style="fill:#ffffff;fill-rule:nonzero;fill-opacity:1"
   inkscape:connector-curvature="0" /><path
   id="123456789101112131415161718"
   class="fil5"
   d="m 1657.37,194.09 c -0.039,-4.90785 -0.6577,-9.04357 -1.8945,-12.406 -1.2368,-3.36244 -2.8793,-6.06834 -4.9078,-8.09691 -2.0494,-2.01007 -4.3103,-3.47803 -6.8024,-4.38655 -2.4735,-0.88887 -4.9668,-1.33388 -7.4981,-1.31423 -2.4158,0.0196 -4.6189,0.32827 -6.6671,0.92701 -2.0286,0.61839 -3.8653,1.44947 -5.4881,2.47357 -1.6425,1.04376 -3.0538,2.2031 -4.271,3.49768 -1.1975,1.29574 -2.1834,2.62846 -2.9371,4.00048 h -0.3479 l -0.6958,-9.50707 H 1604.15 c 0.077,1.79623 0.1549,3.63292 0.2312,5.50659 0.059,1.87483 0.1167,3.8271 0.1745,5.87531 0.038,2.04821 0.058,4.23166 0.058,6.58964 v 45.9148 h 13.4498 v -38.4941 c 0.02,-2.55102 0.4254,-4.81191 1.2171,-6.74453 0.7733,-1.95227 1.8367,-3.59477 3.1498,-4.909 1.3142,-1.31307 2.7834,-2.31869 4.3877,-2.99487 1.6229,-0.67619 3.2654,-1.00446 4.9275,-1.00446 2.2805,0.0185 4.212,0.46351 5.7782,1.33272 1.5454,0.87038 2.8019,2.08751 3.7485,3.61442 0.9467,1.54541 1.6229,3.32314 2.0286,5.31356 0.4253,2.01007 0.638,4.15537 0.6184,6.43591 v 37.4504 h 13.4509 v -39.0744 z"
   style="fill:#ffffff;fill-rule:nonzero;fill-opacity:1"
   inkscape:connector-curvature="0" /><path
   id="12345678910111213141516171819"
   class="fil5"
   d="m 1675.69,216.468 c -0.3872,2.57067 -0.8704,5.31471 -1.4691,8.21365 -0.5988,2.89778 -1.2565,5.81636 -1.9904,8.77309 -0.734,2.95673 -1.5073,5.79671 -2.3187,8.52227 -0.8115,2.7244 -1.6425,5.19797 -2.4539,7.42072 l 9.2759,-0.92817 c 1.12,-1.85518 2.2793,-4.07793 3.4976,-6.64744 1.2368,-2.58916 2.454,-5.37251 3.6711,-8.38703 1.2171,-2.99487 2.3765,-6.06834 3.478,-9.1788 1.1016,-3.11162 2.0679,-6.14579 2.9186,-9.06322 z"
   style="fill:#ffffff;fill-rule:nonzero;fill-opacity:1"
   inkscape:connector-curvature="0" /><polygon
   id="1234567891011121314151617181920"
   class="fil5"
   points="1100.94,347.531 1114.39,347.531 1114.39,258.716 1100.94,258.716 "
   style="fill:#ffffff;fill-rule:nonzero;fill-opacity:1" /><path
   id="123456789101112131415161718192021"
   class="fil5"
   d="m 1184.89,308.457 c -0.039,-4.90785 -0.6577,-9.04357 -1.8945,-12.406 -1.2368,-3.36244 -2.8793,-6.06834 -4.9078,-8.09691 -2.0494,-2.01007 -4.3103,-3.47803 -6.8024,-4.38655 -2.4735,-0.88887 -4.9668,-1.33388 -7.4981,-1.31423 -2.4158,0.0197 -4.6189,0.32827 -6.6671,0.92701 -2.0286,0.6184 -3.8653,1.44947 -5.4881,2.47357 -1.6425,1.04376 -3.0538,2.2031 -4.271,3.49768 -1.1975,1.29574 -2.1834,2.62846 -2.937,4.00048 h -0.348 l -0.6958,-9.50707 H 1131.67 c 0.077,1.79623 0.1549,3.63292 0.2312,5.50659 0.059,1.87483 0.1167,3.8271 0.1745,5.87531 0.038,2.04821 0.058,4.23166 0.058,6.58964 v 45.9148 h 13.4498 v -38.4941 c 0.02,-2.55102 0.4254,-4.81191 1.2171,-6.74453 0.7733,-1.95227 1.8367,-3.59477 3.1498,-4.909 1.3142,-1.31307 2.7834,-2.31869 4.3877,-2.99487 1.6229,-0.67619 3.2654,-1.00446 4.9275,-1.00446 2.2805,0.0185 4.212,0.46351 5.7782,1.33272 1.5454,0.87038 2.8019,2.08751 3.7485,3.61442 0.9467,1.54541 1.6229,3.32314 2.0286,5.31356 0.4253,2.01007 0.638,4.15537 0.6184,6.43591 v 37.4504 h 13.4509 v -39.0744 z"
   style="fill:#ffffff;fill-rule:nonzero;fill-opacity:1"
   inkscape:connector-curvature="0" /><path
   id="12345678910111213141516171819202122"
   class="fil5"
   d="m 1242.98,335.473 c -1.4876,0.65654 -3.2075,1.25528 -5.1587,1.75809 -1.9522,0.50281 -4.2513,0.77328 -6.8994,0.79177 -2.8018,0 -5.3725,-0.5213 -7.7293,-1.52576 -2.3384,-1.00561 -4.3866,-2.47357 -6.1262,-4.4062 -1.7396,-1.91297 -3.0919,-4.27096 -4.0386,-7.03466 -0.9663,-2.76254 -1.4495,-5.89381 -1.4691,-9.41114 0,-3.14976 0.4253,-6.10649 1.2761,-8.83089 0.8495,-2.74405 2.106,-5.15983 3.7681,-7.22769 1.661,-2.08635 3.6907,-3.71036 6.1065,-4.8882 2.4158,-1.15934 5.198,-1.75924 8.3281,-1.77774 1.817,0 3.4399,0.13524 4.8893,0.40572 1.4299,0.25082 2.7059,0.57909 3.7878,0.96631 1.1016,0.38606 2.0286,0.77212 2.8019,1.17784 l 2.6666,-10.3185 c -0.9467,-0.48316 -2.1257,-0.92817 -3.5751,-1.37202 -1.4299,-0.44501 -3.0527,-0.79293 -4.8697,-1.08306 -1.8159,-0.28897 -3.7485,-0.44386 -5.8164,-0.44386 -5.1402,0.0196 -9.759,0.88887 -13.8173,2.58916 -4.0768,1.70029 -7.5363,4.07793 -10.3959,7.13059 -2.8608,3.07347 -5.0442,6.64744 -6.5515,10.7832 -1.5073,4.11607 -2.2609,8.59971 -2.2805,13.4694 0.02,5.00494 0.7351,9.50823 2.1649,13.5076 1.4495,4.00048 3.4977,7.42072 6.1643,10.2619 2.6862,2.83999 5.8938,5.00494 9.6238,6.53185 3.73,1.50726 7.9235,2.26089 12.5412,2.27939 2.4736,-0.0185 4.7738,-0.19303 6.8994,-0.54095 2.106,-0.32827 3.9809,-0.75363 5.6037,-1.23679 1.6229,-0.50165 2.9371,-0.9848 3.9612,-1.46796 l -1.8552,-10.0873 z"
   style="fill:#ffffff;fill-rule:nonzero;fill-opacity:1"
   inkscape:connector-curvature="0" /><path
   id="1234567891011121314151617181920212223"
   class="fil5"
   d="m 1308.84,283.645 h -13.4498 v 39.5379 c -0.019,2.41578 -0.4254,4.52178 -1.2171,6.31917 -0.7918,1.81588 -1.8356,3.32314 -3.1498,4.54028 -1.2946,1.19864 -2.7244,2.10716 -4.2906,2.72555 -1.5651,0.59874 -3.1105,0.90852 -4.6755,0.90852 -2.9186,-0.0197 -5.2569,-0.79293 -7.015,-2.30019 -1.7593,-1.50726 -3.0146,-3.63292 -3.7878,-6.37696 -0.7733,-2.7244 -1.1594,-5.9516 -1.1409,-9.64347 V 283.645 h -13.4498 v 37.9532 c 0.02,5.06273 0.5803,9.35334 1.6818,12.851 1.0819,3.47803 2.5892,6.27987 4.5021,8.38587 1.913,2.10716 4.1161,3.63292 6.5897,4.58073 2.4736,0.94666 5.0824,1.41017 7.8657,1.39052 2.5695,-0.0185 4.9079,-0.36641 6.9954,-1.02411 2.0678,-0.67619 3.9034,-1.52576 5.5077,-2.60881 1.5847,-1.06225 2.9371,-2.2031 4.0583,-3.40058 1.12,-1.21714 2.0286,-2.39613 2.6851,-3.51733 h 0.3479 l 0.6959,9.2759 h 11.8269 c -0.1156,-2.55102 -0.2509,-5.33321 -0.3676,-8.36738 -0.1352,-3.03417 -0.193,-6.33882 -0.2127,-9.91394 v -45.6051 z"
   style="fill:#ffffff;fill-rule:nonzero;fill-opacity:1"
   inkscape:connector-curvature="0" /><path
   id="123456789101112131415161718192021222324"
   class="fil5"
   d="m 1339.56,292.573 v -38.0306 h -13.4498 v 75.9445 c 0,1.95227 -0.02,3.96234 -0.058,6.04869 -0.058,2.06786 -0.1156,4.05828 -0.1745,5.9516 -0.076,1.91413 -0.1538,3.59477 -0.2312,5.04424 h 11.479 l 0.6947,-9.62382 h 0.3479 c 2.1453,3.74966 4.8119,6.5122 7.9813,8.27144 3.1498,1.77774 6.8023,2.64695 10.9184,2.6273 2.6666,0 5.2754,-0.44386 7.8646,-1.31307 2.5707,-0.88887 5.0061,-2.22275 7.267,-4.02013 2.2794,-1.77774 4.2894,-4.03863 6.029,-6.76303 1.7385,-2.72555 3.1105,-5.91346 4.1161,-9.60417 0.9848,-3.67222 1.4876,-7.84608 1.5072,-12.5031 -0.02,-4.88935 -0.6183,-9.3152 -1.7973,-13.2764 -1.1975,-3.96118 -2.8793,-7.36292 -5.0628,-10.2029 -2.2031,-2.84114 -4.7922,-5.02459 -7.8068,-6.5515 -3.0156,-1.52691 -6.3584,-2.29904 -10.0295,-2.31869 -4.4639,0.0197 -8.3292,0.92701 -11.5946,2.7244 -3.2665,1.79739 -5.8556,4.32875 -7.7686,7.59526 h -0.2323 z m 0,17.1601 c 0.02,-2.1453 0.3861,-4.19352 1.1016,-6.18393 0.7339,-1.99042 1.758,-3.76815 3.0919,-5.33436 1.3143,-1.5847 2.8793,-2.83999 4.657,-3.76815 1.7974,-0.92701 3.7497,-1.39052 5.8754,-1.41017 2.6666,0.0197 4.9852,0.59874 6.9757,1.75809 1.9904,1.15934 3.6525,2.7637 4.9668,4.79226 1.313,2.02972 2.299,4.3877 2.9567,7.05431 0.6565,2.64695 0.9848,5.50659 0.9848,8.54076 0,4.58073 -0.6184,8.58006 -1.8552,12.0003 -1.2368,3.42139 -3.0342,6.06834 -5.4106,7.96167 -2.3765,1.89448 -5.2951,2.86079 -8.735,2.87929 -2.2031,-0.0185 -4.212,-0.46351 -5.9897,-1.31307 -1.7974,-0.87037 -3.344,-2.04937 -4.6189,-3.51733 -1.2761,-1.48761 -2.2609,-3.16941 -2.9567,-5.04424 -0.6959,-1.87367 -1.0438,-3.8456 -1.0438,-5.89381 v -12.5216 z"
   style="fill:#ffffff;fill-rule:nonzero;fill-opacity:1"
   inkscape:connector-curvature="0" /><path
   id="12345678910111213141516171819202122232425"
   class="fil5"
   d="m 1441.83,308.226 c 0.02,-3.42139 -0.3479,-6.68674 -1.1016,-9.7787 -0.7732,-3.11162 -2.0482,-5.87416 -3.8456,-8.28994 -1.8158,-2.43543 -4.2709,-4.3484 -7.3814,-5.75857 -3.1116,-1.39167 -6.9953,-2.12565 -11.672,-2.1453 -2.8793,0.0197 -5.5852,0.25082 -8.1558,0.73398 -2.5695,0.48316 -4.9079,1.1212 -7.0335,1.93262 -2.106,0.79293 -3.9231,1.6818 -5.45,2.6666 l 2.7834,8.92798 c 1.372,-0.88887 2.8793,-1.68064 4.5599,-2.33834 1.6818,-0.65654 3.4595,-1.15934 5.3344,-1.52691 1.8551,-0.34676 3.7288,-0.54095 5.6418,-0.54095 2.551,0.0197 4.6582,0.36757 6.281,1.02411 1.6229,0.65769 2.8989,1.54656 3.8075,2.62846 0.9073,1.0819 1.565,2.26089 1.9511,3.53698 0.4057,1.27493 0.638,2.53137 0.734,3.76815 0.077,1.23679 0.1167,2.33834 0.097,3.30465 -5.4881,0 -10.4352,0.50165 -14.8218,1.48761 -4.3866,0.98596 -8.1362,2.45392 -11.2467,4.44434 -3.1117,1.97077 -5.4881,4.44434 -7.1503,7.42072 -1.6425,2.97638 -2.4735,6.43476 -2.4932,10.4156 0,2.49322 0.4254,4.85121 1.2564,7.0728 0.8311,2.2424 2.0483,4.21316 3.6526,5.95276 1.6032,1.73844 3.5751,3.11046 5.8938,4.11607 2.3384,0.98481 4.9853,1.50726 7.9813,1.52576 2.6666,-0.0185 5.1402,-0.40571 7.3815,-1.13969 2.2609,-0.75363 4.2709,-1.77774 6.029,-3.09197 1.7592,-1.29458 3.2469,-2.78219 4.4443,-4.46399 h 0.348 l 0.9281,7.42072 h 12.1748 c -0.3872,-2.12565 -0.6577,-4.48364 -0.7732,-7.11094 -0.1168,-2.62846 -0.1746,-5.31471 -0.1549,-8.07841 V 308.226 Z m -13.1018,17.7392 c -0.02,2.49322 -0.638,4.71481 -1.8355,6.66709 -1.1987,1.95227 -2.7834,3.47803 -4.7934,4.59923 -2.0089,1.1212 -4.2317,1.70029 -6.7053,1.71994 -1.6806,0 -3.2272,-0.34792 -4.657,-1.0819 -1.4102,-0.71549 -2.551,-1.81704 -3.4006,-3.3243 -0.8703,-1.50726 -1.3142,-3.43988 -1.3338,-5.79671 0.02,-2.26089 0.4635,-4.17502 1.3523,-5.75857 0.8889,-1.56621 2.0875,-2.84114 3.6144,-3.8456 1.5258,-1.00561 3.2457,-1.75924 5.198,-2.31984 1.9511,-0.54095 4.0005,-0.90736 6.1446,-1.12004 2.1453,-0.21268 4.2907,-0.30978 6.4163,-0.29013 v 10.5508 z"
   style="fill:#ffffff;fill-rule:nonzero;fill-opacity:1"
   inkscape:connector-curvature="0" /><path
   id="1234567891011121314151617181920212223242526"
   class="fil5"
   d="m 1461.42,283.645 h -9.0436 v 10.0873 h 9.0436 v 33.0442 c 0,4.15537 0.3872,7.61375 1.1593,10.4167 0.7733,2.78219 1.972,5.02343 3.5948,6.74338 1.4102,1.56621 3.2076,2.78335 5.3725,3.61442 2.1442,0.83107 4.5796,1.25528 7.2659,1.25528 2.2608,0 4.2894,-0.13524 6.0486,-0.40571 1.7581,-0.27048 3.2272,-0.63689 4.3866,-1.10155 l -0.4635,-10.3185 c -0.7929,0.23117 -1.6437,0.42536 -2.5707,0.57909 -0.9085,0.15489 -2.0285,0.23233 -3.3428,0.23233 -2.8215,0 -4.8893,-0.96631 -6.1839,-2.89893 -1.3142,-1.93262 -1.9523,-4.8697 -1.9326,-8.81239 v -32.3483 h 15.1894 v -10.0873 h -15.1894 v -15.7696 l -13.3342,4.17502 v 11.5946 z"
   style="fill:#ffffff;fill-rule:nonzero;fill-opacity:1"
   inkscape:connector-curvature="0" /><path
   id="123456789101112131415161718192021222324252627"
   class="fil5"
   d="m 1516.15,266.02 c -0.02,-1.52576 -0.3479,-2.87929 -0.9848,-4.05828 -0.638,-1.17784 -1.5466,-2.106 -2.7059,-2.78219 -1.1593,-0.67619 -2.5117,-1.02411 -4.0779,-1.04376 -1.5651,0.0197 -2.9175,0.36757 -4.0965,1.04376 -1.1789,0.67619 -2.106,1.60435 -2.7637,2.78219 -0.6761,1.17899 -1.0044,2.53252 -1.0241,4.05828 0.02,1.44947 0.348,2.74405 0.986,3.92304 0.638,1.15934 1.5454,2.08751 2.7047,2.78335 1.1605,0.69584 2.5326,1.0426 4.078,1.06225 1.6228,-0.0197 3.0341,-0.36641 4.2131,-1.06225 1.179,-0.69584 2.0679,-1.624 2.7048,-2.78335 0.638,-1.17899 0.9663,-2.47357 0.9663,-3.92304 z m -1.1593,17.6248 h -13.4498 v 63.8864 h 13.4498 z"
   style="fill:#ffffff;fill-rule:nonzero;fill-opacity:1"
   inkscape:connector-curvature="0" /><path
   id="12345678910111213141516171819202122232425262728"
   class="fil5"
   d="m 1558.35,282.253 c -4.2513,0 -8.2125,0.75363 -11.8454,2.24124 -3.6526,1.48877 -6.8416,3.67222 -9.566,6.53185 -2.7441,2.87929 -4.8697,6.41626 -6.3966,10.5901 -1.5269,4.19352 -2.3187,8.98577 -2.3384,14.3768 0.02,5.15983 0.7733,9.7787 2.2413,13.837 1.4691,4.05828 3.5173,7.47851 6.1458,10.3 2.6469,2.82149 5.7389,4.98529 9.2759,6.45441 3.5358,1.46796 7.3814,2.2031 11.5564,2.22159 2.8977,0 5.777,-0.40571 8.6378,-1.21714 2.8597,-0.81142 5.5459,-2.06786 8.0969,-3.7878 2.5511,-1.70029 4.8119,-3.88374 6.7827,-6.53185 1.9904,-2.6666 3.5358,-5.83601 4.657,-9.52672 1.1397,-3.67106 1.72,-7.90387 1.7396,-12.6765 -0.02,-4.909 -0.6958,-9.39149 -2.0678,-13.392 -1.3524,-4.01898 -3.3243,-7.47851 -5.8557,-10.3578 -2.551,-2.89893 -5.584,-5.12168 -9.1407,-6.68674 -3.5554,-1.56505 -7.5363,-2.35683 -11.9229,-2.37648 z m 15.1894,33.1609 c 0,3.20755 -0.3676,6.22208 -1.0831,9.02392 -0.7339,2.803 -1.7777,5.27657 -3.1497,7.42072 -1.372,2.12565 -3.0145,3.80745 -4.9657,5.00494 -1.9326,1.21829 -4.1357,1.83669 -6.5711,1.85518 -2.4736,-0.0185 -4.6755,-0.63689 -6.6278,-1.83553 -1.9326,-1.21714 -3.5948,-2.87929 -4.9471,-5.00494 -1.3721,-2.12565 -2.3962,-4.57958 -3.1117,-7.34327 -0.7143,-2.78219 -1.0819,-5.73892 -1.0819,-8.88984 0,-2.22159 0.1746,-4.44434 0.541,-6.64744 0.3872,-2.22159 0.9663,-4.32875 1.7396,-6.31917 0.7917,-1.99042 1.8159,-3.76815 3.0526,-5.31356 1.2565,-1.54656 2.7441,-2.7637 4.4837,-3.65257 1.7592,-0.90852 3.7681,-1.35237 6.0683,-1.37202 2.2413,0.0196 4.2317,0.48316 5.9516,1.39167 1.72,0.88887 3.1891,2.12565 4.4259,3.69071 1.2171,1.56505 2.2216,3.3243 3.0145,5.31471 0.7721,1.97077 1.3524,4.05712 1.7199,6.22208 0.3664,2.1638 0.541,4.32875 0.541,6.45441 z"
   style="fill:#ffffff;fill-rule:nonzero;fill-opacity:1"
   inkscape:connector-curvature="0" /><path
   id="1234567891011121314151617181920212223242526272829"
   class="fil5"
   d="m 1653.43,308.457 c -0.039,-4.90785 -0.6577,-9.04357 -1.8945,-12.406 -1.2368,-3.36244 -2.8793,-6.06834 -4.9078,-8.09691 -2.0494,-2.01007 -4.3103,-3.47803 -6.8024,-4.38655 -2.4735,-0.88887 -4.9668,-1.33388 -7.4981,-1.31423 -2.4158,0.0197 -4.6189,0.32827 -6.6671,0.92701 -2.0286,0.6184 -3.8653,1.44947 -5.4881,2.47357 -1.6425,1.04376 -3.0538,2.2031 -4.271,3.49768 -1.1975,1.29574 -2.1834,2.62846 -2.937,4.00048 h -0.348 l -0.6958,-9.50707 H 1600.21 c 0.077,1.79623 0.1549,3.63292 0.2312,5.50659 0.059,1.87483 0.1167,3.8271 0.1745,5.87531 0.038,2.04821 0.058,4.23166 0.058,6.58964 v 45.9148 h 13.4498 v -38.4941 c 0.02,-2.55102 0.4254,-4.81191 1.2171,-6.74453 0.7733,-1.95227 1.8367,-3.59477 3.1498,-4.909 1.3142,-1.31307 2.7834,-2.31869 4.3877,-2.99487 1.6229,-0.67619 3.2654,-1.00446 4.9275,-1.00446 2.2805,0.0185 4.212,0.46351 5.7782,1.33272 1.5454,0.87038 2.8019,2.08751 3.7485,3.61442 0.9467,1.54541 1.6229,3.32314 2.0286,5.31356 0.4253,2.01007 0.638,4.15537 0.6184,6.43591 v 37.4504 h 13.4509 v -39.0744 z"
   style="fill:#ffffff;fill-rule:nonzero;fill-opacity:1"
   inkscape:connector-curvature="0" /><path
   id="123456789101112131415161718192021222324252627282930"
   class="fil5"
   d="m 1155.2,445.897 c 2.2805,-2.7059 4.2328,-5.77822 5.8557,-9.1788 1.6228,-3.40174 2.9948,-7.09245 4.0964,-11.0536 1.1015,-3.98083 2.0101,-8.17435 2.6862,-12.5805 h -12.0581 c -0.4253,3.14976 -0.9663,6.20358 -1.6425,9.16031 -0.6762,2.95673 -1.5072,5.73892 -2.4735,8.34773 -0.9664,2.60881 -2.106,4.9668 -3.4203,7.0728 -1.8355,-2.106 -3.8259,-4.46399 -5.9527,-7.01501 -2.1257,-2.56951 -4.2895,-5.19797 -6.4926,-7.88422 -2.2031,-2.6666 -4.3091,-5.25576 -6.3388,-7.71084 v -0.46351 c 4.3484,-2.35799 7.8461,-4.77261 10.5127,-7.24618 2.6666,-2.47357 4.5992,-5.06389 5.7979,-7.76864 1.1975,-2.7244 1.7974,-5.60484 1.7777,-8.63786 -0.02,-2.99603 -0.5409,-5.66263 -1.5465,-8.03911 -1.0242,-2.35799 -2.4343,-4.3484 -4.2514,-6.01055 -1.8158,-1.6425 -3.923,-2.89778 -6.3376,-3.76815 -2.3961,-0.86921 -5.005,-1.31423 -7.808,-1.31423 -3.7103,0.0196 -6.9757,0.6577 -9.7972,1.89448 -2.8214,1.23679 -5.1783,2.89893 -7.0728,4.98529 -1.8933,2.08751 -3.3231,4.44434 -4.2894,7.05315 -0.9663,2.60881 -1.4495,5.31471 -1.4495,8.09691 0.019,3.20871 0.6762,6.41626 1.9326,9.58567 1.2553,3.16941 2.9753,6.16428 5.1402,8.96612 l -0.1167,0.34792 c -3.3035,1.93262 -6.1828,4.15537 -8.6182,6.66709 -2.4355,2.51172 -4.3288,5.35286 -5.6812,8.50262 -1.3535,3.14976 -2.0297,6.62894 -2.0482,10.4549 0,3.26535 0.5791,6.39661 1.7385,9.35334 1.1593,2.95673 2.8793,5.60368 5.1598,7.92237 2.2805,2.31869 5.102,4.15537 8.4645,5.4881 3.3624,1.33388 7.2461,2.02972 11.6524,2.04821 4.6963,0 9.0435,-0.75363 13.0441,-2.29904 4.0004,-1.52691 7.653,-3.8456 10.9565,-6.97571 1.4887,1.70029 2.7833,3.1879 3.9045,4.42469 1.1201,1.25644 2.202,2.43543 3.285,3.57512 h 15.6529 l -14.2623,-16.0008 z m -30.3776,7.18839 c -2.4736,-0.0185 -4.7148,-0.46351 -6.7052,-1.31307 -2.0101,-0.87037 -3.73,-2.06786 -5.1599,-3.61442 -1.4494,-1.54541 -2.551,-3.32314 -3.3243,-5.35286 -0.7536,-2.01007 -1.1593,-4.19352 -1.1593,-6.53185 0.02,-2.02856 0.3098,-3.88374 0.8889,-5.54589 0.5606,-1.68064 1.3142,-3.1879 2.2609,-4.54143 0.9281,-1.35237 1.9522,-2.53137 3.0538,-3.57512 1.12,-1.04376 2.2216,-1.93262 3.3046,-2.68625 2.7626,3.30465 5.4881,6.5515 8.1929,9.75905 2.7059,3.18906 5.2569,6.20358 7.653,9.00542 2.3961,2.82149 4.5414,5.29506 6.4151,7.44037 -0.5987,0.71433 -1.372,1.46796 -2.299,2.26089 -0.9085,0.79177 -2.0101,1.54541 -3.285,2.26089 -1.2565,0.71433 -2.7059,1.29458 -4.3484,1.73844 -1.6229,0.44501 -3.4595,0.67734 -5.4881,0.69584 z m 1.9708,-72.2341 c 1.624,0.0185 3.0145,0.32827 4.1553,0.94666 1.1397,0.6184 2.0864,1.44947 2.8019,2.47357 0.7143,1.02411 1.2564,2.1638 1.5847,3.42023 0.3479,1.25644 0.5016,2.53137 0.5016,3.82595 0,2.22275 -0.5016,4.27096 -1.4876,6.10649 -0.9848,1.85518 -2.4158,3.59477 -4.2894,5.23727 -1.8552,1.6425 -4.1161,3.285 -6.7446,4.88935 -1.8355,-2.30019 -3.3046,-4.65702 -4.4258,-7.1121 -1.12,-2.43427 -1.6806,-5.08238 -1.7199,-7.96167 0,-1.48761 0.1941,-2.93708 0.5802,-4.34725 0.3861,-1.39167 0.9663,-2.6666 1.7581,-3.7878 0.7929,-1.1212 1.7777,-2.01007 2.996,-2.68625 1.2172,-0.65654 2.647,-0.98596 4.2895,-1.00446 z"
   style="fill:#ffffff;fill-rule:nonzero;fill-opacity:1"
   inkscape:connector-curvature="0" /><polygon
   id="12345678910111213141516171819202122232425262728293031"
   class="fil5"
   points="1205.41,461.898 1253.07,461.898 1253.07,450.536 1218.86,450.536 1218.86,373.083 1205.41,373.083 "
   style="fill:#ffffff;fill-rule:nonzero;fill-opacity:1" /><path
   id="1234567891011121314151617181920212223242526272829303132"
   class="fil5"
   d="m 1278.92,380.387 c -0.02,-1.52576 -0.3479,-2.87929 -0.9848,-4.05828 -0.638,-1.17784 -1.5466,-2.106 -2.7059,-2.78219 -1.1593,-0.67619 -2.5117,-1.02411 -4.0779,-1.04376 -1.5651,0.0197 -2.9175,0.36757 -4.0965,1.04376 -1.1789,0.67619 -2.106,1.60435 -2.7637,2.78219 -0.6761,1.17899 -1.0044,2.53252 -1.0241,4.05828 0.02,1.44947 0.348,2.74405 0.986,3.92304 0.638,1.15934 1.5454,2.08751 2.7047,2.78335 1.1605,0.69584 2.5326,1.0426 4.078,1.06225 1.6228,-0.0197 3.0341,-0.36641 4.2131,-1.06225 1.179,-0.69584 2.0679,-1.624 2.7048,-2.78335 0.638,-1.17899 0.9663,-2.47357 0.9663,-3.92304 z m -1.1593,17.6248 h -13.4498 v 63.8864 h 13.4498 z"
   style="fill:#ffffff;fill-rule:nonzero;fill-opacity:1"
   inkscape:connector-curvature="0" /><path
   id="123456789101112131415161718192021222324252627282930313233"
   class="fil5"
   d="m 1347.79,422.824 c -0.039,-4.90785 -0.6577,-9.04357 -1.8945,-12.406 -1.2368,-3.36244 -2.8793,-6.06834 -4.9078,-8.09691 -2.0494,-2.01007 -4.3103,-3.47803 -6.8024,-4.38655 -2.4735,-0.88887 -4.9668,-1.33388 -7.4981,-1.31423 -2.4158,0.0196 -4.6189,0.32827 -6.6671,0.92701 -2.0286,0.6184 -3.8653,1.44947 -5.4881,2.47357 -1.6425,1.04376 -3.0538,2.2031 -4.271,3.49768 -1.1975,1.29574 -2.1834,2.62846 -2.937,4.00048 h -0.348 l -0.6958,-9.50707 H 1294.57 c 0.077,1.79623 0.1549,3.63292 0.2312,5.50659 0.059,1.87483 0.1167,3.8271 0.1745,5.87531 0.038,2.04821 0.058,4.23166 0.058,6.58964 v 45.9148 h 13.4498 v -38.4941 c 0.02,-2.55102 0.4254,-4.81191 1.2171,-6.74453 0.7733,-1.95227 1.8367,-3.59477 3.1498,-4.909 1.3142,-1.31307 2.7834,-2.31869 4.3877,-2.99487 1.6229,-0.67619 3.2654,-1.00446 4.9275,-1.00446 2.2805,0.0185 4.212,0.46351 5.7782,1.33272 1.5454,0.87038 2.8019,2.08751 3.7485,3.61442 0.9467,1.54541 1.6229,3.32314 2.0286,5.31356 0.4253,2.01007 0.638,4.15537 0.6184,6.43591 v 37.4504 h 13.4509 v -39.0744 z"
   style="fill:#ffffff;fill-rule:nonzero;fill-opacity:1"
   inkscape:connector-curvature="0" /><path
   id="12345678910111213141516171819202122232425262728293031323334"
   class="fil5"
   d="m 1392.55,424.331 22.4933,-26.3193 h -15.8852 l -15.884,21.334 c -0.8114,1.1212 -1.6425,2.31869 -2.4736,3.61327 -0.831,1.29458 -1.6425,2.57067 -2.3961,3.80745 h -0.2323 v -57.8573 h -13.4498 v 92.989 h 13.4498 v -22.958 l 5.2176,-6.37696 18.3195,29.335 h 16.2331 l -25.3923,-37.5671 z"
   style="fill:#ffffff;fill-rule:nonzero;fill-opacity:1"
   inkscape:connector-curvature="0" /><path
   id="1234567891011121314151617181920212223242526272829303132333435"
   class="fil5"
   d="m 1470.23,422.593 c 0.02,-3.42139 -0.3479,-6.68674 -1.1015,-9.7787 -0.7733,-3.11162 -2.0483,-5.87416 -3.8457,-8.28994 -1.8158,-2.43543 -4.2709,-4.3484 -7.3814,-5.75857 -3.1116,-1.39167 -6.9953,-2.12565 -11.672,-2.1453 -2.8793,0.0196 -5.5852,0.25082 -8.1558,0.73398 -2.5695,0.48316 -4.9079,1.1212 -7.0335,1.93262 -2.106,0.79293 -3.9231,1.6818 -5.45,2.6666 l 2.7834,8.92798 c 1.372,-0.88887 2.8793,-1.68064 4.5599,-2.33834 1.6818,-0.65654 3.4595,-1.15934 5.3344,-1.52691 1.8551,-0.34676 3.7288,-0.54095 5.6418,-0.54095 2.551,0.0197 4.6582,0.36757 6.281,1.02411 1.6229,0.65769 2.899,1.54656 3.8075,2.62846 0.9073,1.0819 1.565,2.26089 1.9511,3.53698 0.4057,1.27493 0.638,2.53137 0.734,3.76815 0.077,1.23679 0.1167,2.33834 0.097,3.30465 -5.4881,0 -10.4352,0.50165 -14.8218,1.48761 -4.3866,0.98596 -8.1362,2.45392 -11.2467,4.44434 -3.1117,1.97077 -5.4881,4.44434 -7.1503,7.42072 -1.6425,2.97638 -2.4735,6.43476 -2.4932,10.4156 0,2.49322 0.4254,4.85121 1.2564,7.0728 0.8311,2.2424 2.0483,4.21316 3.6526,5.95276 1.6032,1.73844 3.5751,3.11046 5.8938,4.11607 2.3384,0.98481 4.9853,1.50726 7.9813,1.52576 2.6666,-0.0185 5.1402,-0.40571 7.3815,-1.13969 2.2609,-0.75363 4.2709,-1.77774 6.029,-3.09197 1.7592,-1.29458 3.2469,-2.78219 4.4443,-4.46399 h 0.348 l 0.9281,7.42072 h 12.1748 c -0.3872,-2.12565 -0.6577,-4.48364 -0.7732,-7.11094 -0.1168,-2.62846 -0.1746,-5.31471 -0.1549,-8.07841 V 422.593 Z m -13.1018,17.7392 c -0.02,2.49322 -0.638,4.71481 -1.8355,6.66709 -1.1987,1.95227 -2.7834,3.47803 -4.7934,4.59923 -2.0089,1.1212 -4.2317,1.70029 -6.7053,1.71994 -1.6806,0 -3.2272,-0.34792 -4.657,-1.0819 -1.4102,-0.71549 -2.551,-1.81704 -3.4006,-3.3243 -0.8703,-1.50726 -1.3142,-3.43988 -1.3338,-5.79671 0.02,-2.26089 0.4635,-4.17502 1.3523,-5.75857 0.8889,-1.56621 2.0875,-2.84114 3.6144,-3.8456 1.5258,-1.00561 3.2457,-1.75924 5.198,-2.31984 1.9511,-0.54095 4.0005,-0.90736 6.1446,-1.12004 2.1453,-0.21268 4.2907,-0.30978 6.4163,-0.29013 v 10.5508 z"
   style="fill:#ffffff;fill-rule:nonzero;fill-opacity:1"
   inkscape:connector-curvature="0" /><path
   id="123456789101112131415161718192021222324252627282930313233343536"
   class="fil5"
   d="m 1528.55,398.012 -0.5802,8.58006 h -0.2312 c -0.8692,-1.73959 -2.0875,-3.34395 -3.6133,-4.85121 -1.5269,-1.50726 -3.4399,-2.7244 -5.7204,-3.67106 -2.2806,-0.94666 -5.005,-1.42982 -8.1744,-1.44947 -3.5173,0 -6.8797,0.75363 -10.0873,2.22275 -3.2272,1.46796 -6.1065,3.65141 -8.6378,6.5122 -2.5314,2.87929 -4.5415,6.39546 -6.0291,10.589 -1.4691,4.17502 -2.2227,8.98693 -2.262,14.4161 0.02,4.48364 0.638,8.61936 1.8552,12.4072 1.2182,3.7878 2.9382,7.0728 5.1991,9.87464 2.2412,2.82149 4.9078,4.98529 8.0194,6.55034 3.092,1.54656 6.5319,2.33834 10.3197,2.35799 2.7441,-0.0197 5.2558,-0.42536 7.5364,-1.21714 2.2805,-0.81142 4.2709,-1.91297 5.9897,-3.3243 1.7199,-1.39167 3.1313,-3.01452 4.2132,-4.85005 h 0.2323 v 6.14463 c -0.02,4.81191 -0.7929,8.7153 -2.3002,11.7113 -1.5269,2.97522 -3.6133,5.15983 -6.2799,6.55034 -2.6862,1.37202 -5.7782,2.04937 -9.2759,2.02972 -2.3961,-0.0196 -4.6766,-0.23233 -6.8023,-0.65769 -2.1256,-0.42421 -4.0779,-0.98481 -5.836,-1.66099 -1.7777,-0.67735 -3.3243,-1.41132 -4.6374,-2.2031 l -3.0157,10.4352 c 1.6818,1.00446 3.6145,1.85518 5.7979,2.54986 2.1835,0.67734 4.5021,1.19864 6.9572,1.54656 2.4539,0.36756 4.9275,0.54095 7.4207,0.54095 5.0235,-0.0197 9.2944,-0.6184 12.8314,-1.79739 3.5162,-1.17899 6.4348,-2.76254 8.7338,-4.77261 2.3002,-2.01007 4.1161,-4.27096 5.4303,-6.80233 1.3339,-2.51287 2.3002,-5.12168 2.9186,-7.84608 0.6184,-2.70475 1.0045,-5.37251 1.179,-7.96167 0.1537,-2.58916 0.2312,-4.9668 0.2127,-7.11094 v -36.4078 c 0,-2.84114 0.018,-5.37251 0.076,-7.5941 0.039,-2.2031 0.1167,-4.19352 0.1942,-5.95276 0.096,-1.77774 0.193,-3.40058 0.3086,-4.8882 h -11.9425 z m -2.0875,37.218 c -0.019,2.66776 -0.4057,5.0061 -1.1975,6.99651 -0.7733,2.00891 -1.817,3.67106 -3.1498,5.00494 -1.3142,1.33272 -2.8018,2.33834 -4.464,2.99487 -1.6424,0.67619 -3.3427,1.00446 -5.102,1.00446 -2.4932,-0.0185 -4.7148,-0.54095 -6.6474,-1.5847 -1.9523,-1.0426 -3.5751,-2.53137 -4.9275,-4.44434 -1.3339,-1.91297 -2.3384,-4.17387 -3.0342,-6.78268 -0.6958,-2.60881 -1.0437,-5.4881 -1.0437,-8.63786 0.02,-4.57958 0.6958,-8.56041 2.0297,-11.9229 1.3327,-3.34395 3.1682,-5.95276 5.5262,-7.78829 2.358,-1.83553 5.102,-2.7637 8.2125,-2.78219 2.0679,0.0185 3.9427,0.42421 5.6245,1.21714 1.7003,0.79177 3.1497,1.91297 4.3669,3.32314 1.2171,1.41132 2.1453,3.03417 2.8018,4.88935 0.6762,1.87483 1.0045,3.86525 1.0045,5.9909 v 12.5216 z"
   style="fill:#ffffff;fill-rule:nonzero;fill-opacity:1"
   inkscape:connector-curvature="0" /><path
   id="12345678910111213141516171819202122232425262728293031323334353637"
   class="fil5"
   d="m 1601.6,449.84 c -2.0482,0.88887 -4.3865,1.6032 -6.9757,2.1638 -2.5892,0.54095 -5.643,0.83107 -9.1407,0.85072 -2.5313,0.0185 -4.9471,-0.34791 -7.2277,-1.0819 -2.2793,-0.71548 -4.3091,-1.87483 -6.1064,-3.43988 -1.7963,-1.56621 -3.2076,-3.61442 -4.2698,-6.14579 -1.0635,-2.51172 -1.6622,-5.58519 -1.7593,-9.15915 h 40.5816 c 0.1156,-0.81258 0.2127,-1.6818 0.2705,-2.62846 0.058,-0.92816 0.077,-1.95227 0.077,-3.05382 0,-3.16941 -0.2901,-6.26022 -0.8888,-9.25625 -0.5988,-2.99487 -1.5269,-5.77822 -2.7822,-8.36738 -1.2761,-2.58916 -2.8805,-4.8697 -4.8709,-6.82198 -1.9708,-1.97077 -4.3472,-3.49768 -7.0913,-4.59923 -2.7637,-1.10155 -5.9331,-1.66099 -9.5267,-1.68064 -4.5229,0.0196 -8.5801,0.92702 -12.117,2.6666 -3.5555,1.75809 -6.57,4.19352 -9.0436,7.30513 -2.4735,3.11046 -4.3484,6.74338 -5.6429,10.8594 -1.2946,4.13572 -1.9327,8.58006 -1.9523,13.3735 0,4.8882 0.6958,9.31404 2.0494,13.2752 1.3523,3.96234 3.3231,7.36292 5.9319,10.2041 2.5892,2.83999 5.7782,5.02343 9.5267,6.55034 3.7693,1.52691 8.0588,2.30019 12.8707,2.31869 4.3669,-0.0381 8.2703,-0.40571 11.7102,-1.13969 3.4399,-0.71548 6.3007,-1.62285 8.5801,-2.68625 l -2.2031,-9.50707 z m -35.3628,-26.436 c 0.1734,-1.89448 0.5791,-3.8271 1.2171,-5.81752 0.6184,-1.99042 1.5269,-3.82595 2.7048,-5.54589 1.179,-1.71994 2.6678,-3.11046 4.4455,-4.15422 1.7777,-1.06341 3.9034,-1.624 6.3573,-1.6425 2.5707,0.0185 4.7148,0.5606 6.4544,1.6032 1.7396,1.04376 3.1116,2.41578 4.1357,4.09758 1.0045,1.70029 1.7385,3.55547 2.1638,5.54589 0.4254,1.99042 0.6184,3.96118 0.5803,5.91346 z"
   style="fill:#ffffff;fill-rule:nonzero;fill-opacity:1"
   inkscape:connector-curvature="0" /><path
   id="1234567891011121314151617181920212223242526272829303132333435363738"
   class="fil5"
   d="m 1654.82,400.33 c -1.7581,-1.02411 -3.9415,-1.87483 -6.5503,-2.58916 -2.6088,-0.71549 -5.4881,-1.08306 -8.6379,-1.1212 -3.3624,0.0197 -6.4163,0.50281 -9.1407,1.48761 -2.7059,0.98596 -5.0442,2.33834 -6.9768,4.07793 -1.9326,1.73959 -3.4202,3.76815 -4.464,6.06719 -1.0241,2.31984 -1.5454,4.81191 -1.5651,7.49816 -0.02,3.73001 1.2761,7.15024 3.9231,10.2422 2.6284,3.11162 6.7827,5.79787 12.4257,8.07726 2.5313,1.06341 4.5611,2.12565 6.0868,3.14976 1.5073,1.04376 2.5903,2.1846 3.2665,3.40174 0.6566,1.21714 0.9848,2.62846 0.9663,4.23166 0,1.6425 -0.3872,3.07347 -1.1593,4.32875 -0.7929,1.25644 -1.9719,2.22275 -3.537,2.93708 -1.5847,0.71549 -3.5751,1.06341 -5.9712,1.08306 -1.8356,-0.0197 -3.6711,-0.23233 -5.4881,-0.67619 -1.8171,-0.42536 -3.5174,-0.96631 -5.1021,-1.624 -1.5847,-0.65653 -2.9174,-1.31423 -4.0189,-1.99042 l -3.0146,9.97173 c 1.4495,0.85073 3.0724,1.60435 4.9275,2.24124 1.8356,0.63805 3.8075,1.14085 5.9135,1.50726 2.1256,0.34792 4.2894,0.54095 6.5503,0.54095 4.8512,-0.0185 9.0633,-0.79177 12.6383,-2.35683 3.5567,-1.54656 6.3192,-3.76815 8.2715,-6.68674 1.9511,-2.91743 2.9567,-6.43476 2.9764,-10.5508 0,-3.07232 -0.6184,-5.81636 -1.8367,-8.194 -1.2172,-2.37648 -3.0146,-4.48248 -5.4107,-6.29952 -2.3961,-1.83553 -5.3528,-3.45953 -8.8702,-4.8697 -2.5695,-1.10155 -4.657,-2.12565 -6.2221,-3.11162 -1.565,-0.96631 -2.7059,-1.99042 -3.4017,-3.07232 -0.7143,-1.0819 -1.0622,-2.33834 -1.0426,-3.7878 0,-1.44947 0.3479,-2.7637 1.0623,-3.92304 0.7154,-1.15934 1.7592,-2.106 3.1312,-2.78219 1.372,-0.69583 3.0723,-1.04376 5.0824,-1.06341 1.7384,0.0196 3.3809,0.19419 4.9079,0.5606 1.5269,0.36757 2.8989,0.83108 4.1357,1.37202 1.2368,0.5606 2.2805,1.10155 3.1301,1.66215 l 3.0145,-9.7394 z"
   style="fill:#ffffff;fill-rule:nonzero;fill-opacity:1"
   inkscape:connector-curvature="0" /><line
   class="fil1 str2"
   x1="1022.32"
   y1="4.07793"
   x2="1022.32"
   y2="509.60001"
   id="line56"
   style="fill:none;stroke:#ffffff;stroke-width:8.15585995;stroke-linecap:round;stroke-opacity:1" />
</svg>