<?xml version="1.0" encoding="UTF-8" standalone="no"?>
<!-- Created with Inkscape (http://www.inkscape.org/) -->

<svg
   xmlns:dc="http://purl.org/dc/elements/1.1/"
   xmlns:cc="http://creativecommons.org/ns#"
   xmlns:rdf="http://www.w3.org/1999/02/22-rdf-syntax-ns#"
   xmlns:svg="http://www.w3.org/2000/svg"
   xmlns="http://www.w3.org/2000/svg"
   xmlns:sodipodi="http://sodipodi.sourceforge.net/DTD/sodipodi-0.dtd"
   xmlns:inkscape="http://www.inkscape.org/namespaces/inkscape"
   width="233.536mm"
   height="71.058998mm"
   viewBox="0 0 233.53599 71.059"
   version="1.1"
   id="svg8"
   inkscape:version="0.92.3 (2405546, 2018-03-11)"
   sodipodi:docname="Opinta.svg"
   inkscape:export-filename="/home/coder-prans/Desktop/Opinta/drawing.svg.png"
   inkscape:export-xdpi="96"
   inkscape:export-ydpi="96">
  <defs
     id="defs2">
    <inkscape:path-effect
       effect="bspline"
       id="path-effect34"
       is_visible="true"
       weight="33.333333"
       steps="2"
       helper_size="0"
       apply_no_weight="true"
       apply_with_weight="true"
       only_selected="false" />
    <inkscape:perspective
       sodipodi:type="inkscape:persp3d"
       inkscape:vp_x="0 : 148.49998 : 1"
       inkscape:vp_y="0 : 1000 : 0"
       inkscape:vp_z="209.99999 : 148.49999 : 1"
       inkscape:persp3d-origin="105 : 99.000004 : 1"
       id="perspective160" />
  </defs>
  <sodipodi:namedview
     id="base"
     pagecolor="#ffffff"
     bordercolor="#666666"
     borderopacity="1.0"
     inkscape:pageopacity="0.0"
     inkscape:pageshadow="2"
     inkscape:zoom="0.51987305"
     inkscape:cx="467.86433"
     inkscape:cy="320.29171"
     inkscape:document-units="mm"
     inkscape:current-layer="layer1"
     showgrid="false"
     inkscape:window-width="1326"
     inkscape:window-height="742"
     inkscape:window-x="0"
     inkscape:window-y="26"
     inkscape:window-maximized="1"
     units="mm"
     height="3.125in" />
  <metadata
     id="metadata5">
    <rdf:RDF>
      <cc:Work
         rdf:about="">
        <dc:format>image/svg+xml</dc:format>
        <dc:type
           rdf:resource="http://purl.org/dc/dcmitype/StillImage" />
        <dc:title></dc:title>
      </cc:Work>
    </rdf:RDF>
  </metadata>
  <g
     inkscape:label="Layer 1"
     inkscape:groupmode="layer"
     id="layer1"
     transform="translate(0,-225.94102)">
    <text
       xml:space="preserve"
       style="font-style:normal;font-weight:normal;font-size:10.58333302px;line-height:1.25;font-family:sans-serif;letter-spacing:0px;word-spacing:0px;fill:#000000;fill-opacity:1;stroke:none;stroke-width:0.26458332"
       x="21.166666"
       y="173.0238"
       id="text22"><tspan
         sodipodi:role="line"
         id="tspan20"
         x="21.166666"
         y="182.38757"
         style="stroke-width:0.26458332" /></text>
    <flowRoot
       xml:space="preserve"
       id="flowRoot24"
       style="font-style:normal;font-weight:normal;font-size:40px;line-height:1.25;font-family:sans-serif;letter-spacing:0px;word-spacing:0px;fill:#000000;fill-opacity:1;stroke:none"><flowRegion
         id="flowRegion26"><rect
           id="rect28"
           width="182.85715"
           height="48.57143"
           x="342.85715"
           y="488.23398" /></flowRegion><flowPara
         id="flowPara30" /></flowRoot>    <flowRoot
       xml:space="preserve"
       id="flowRoot32"
       style="font-style:normal;font-weight:normal;font-size:40px;line-height:1.25;font-family:sans-serif;letter-spacing:0px;word-spacing:0px;fill:#000000;fill-opacity:1;stroke:none"><flowRegion
         id="flowRegion34"><rect
           id="rect36"
           width="254.28572"
           height="154.28572"
           x="317.14285"
           y="422.51968" /></flowRegion><flowPara
         id="flowPara38" /></flowRoot>    <flowRoot
       xml:space="preserve"
       id="flowRoot66"
       style="font-style:normal;font-weight:normal;font-size:40px;line-height:1.25;font-family:sans-serif;letter-spacing:0px;word-spacing:0px;fill:#000000;fill-opacity:1;stroke:none"><flowRegion
         id="flowRegion68"><rect
           id="rect70"
           width="382.85715"
           height="137.14285"
           x="328.57144"
           y="171.09111" /></flowRegion><flowPara
         id="flowPara72" /></flowRoot>    <g
       id="g849"
       transform="translate(-4.416111,5.2918981)">
      <text
         inkscape:export-ydpi="96"
         inkscape:export-xdpi="96"
         transform="scale(1.0142525,0.98594778)"
         id="text209"
         y="263.66248"
         x="68.296959"
         style="font-style:normal;font-variant:normal;font-weight:normal;font-stretch:normal;font-size:41.36984634px;line-height:1.25;font-family:Waree;-inkscape-font-specification:Waree;letter-spacing:0px;word-spacing:0px;fill:#532ca2;fill-opacity:1;stroke:none;stroke-width:1.03424644"
         xml:space="preserve"><tspan
           style="font-style:normal;font-variant:normal;font-weight:normal;font-stretch:normal;font-size:44.53610611px;font-family:'Noto Serif';-inkscape-font-specification:'Noto Serif';fill:#532ca2;fill-opacity:1;stroke-width:1.03424644"
           y="263.66248"
           x="68.296959"
           id="tspan207"
           sodipodi:role="line">OPINTA</tspan></text>
      <text
         inkscape:export-ydpi="96"
         inkscape:export-xdpi="96"
         transform="scale(0.94902915,1.0537084)"
         id="text213"
         y="268.52808"
         x="76.931145"
         style="font-style:normal;font-variant:normal;font-weight:normal;font-stretch:normal;font-size:17.67619514px;line-height:1.25;font-family:Waree;-inkscape-font-specification:Waree;letter-spacing:0px;word-spacing:0px;fill:#532ca2;fill-opacity:1;stroke:none;stroke-width:0.44190484"
         xml:space="preserve"><tspan
           style="fill:#532ca2;fill-opacity:1;stroke-width:0.44190484"
           y="268.52808"
           x="76.931145"
           id="tspan211"
           sodipodi:role="line">SOLUTIONS</tspan></text>
      <path
         inkscape:connector-curvature="0"
         id="path256"
         d="m 231.25751,227.87349 a 2.8172017,2.8337495 0 0 0 -2.81719,2.83375 2.8172017,2.8337495 0 0 0 2.81719,2.83375 2.8172017,2.8337495 0 0 0 2.8172,-2.83375 2.8172017,2.8337495 0 0 0 -2.8172,-2.83375 z m 0,0.2622 a 2.5501243,2.5943536 0 0 1 0.25459,0.013 2.5501243,2.5943536 0 0 1 0.25205,0.0387 2.5501243,2.5943536 0 0 1 0.24698,0.0642 2.5501243,2.5943536 0 0 1 0.23944,0.0889 2.5501243,2.5943536 0 0 1 0.22953,0.1128 2.5501243,2.5943536 0 0 1 0.21732,0.13554 2.5501243,2.5943536 0 0 1 0.20293,0.15694 2.5501243,2.5943536 0 0 1 0.1865,0.17677 2.5501243,2.5943536 0 0 1 0.16825,0.19483 2.5501243,2.5943536 0 0 1 0.14826,0.21095 2.5501243,2.5943536 0 0 1 0.12685,0.22493 2.5501243,2.5943536 0 0 1 0.10412,0.23671 2.5501243,2.5943536 0 0 1 0.0803,0.2461 2.5501243,2.5943536 0 0 1 0.0558,0.25302 2.5501243,2.5943536 0 0 1 0.0307,0.25745 2.5501243,2.5943536 0 0 1 0.007,0.18351 2.5501243,2.5943536 0 0 1 -0.0127,0.25901 2.5501243,2.5943536 0 0 1 -0.0381,0.2564 2.5501243,2.5943536 0 0 1 -0.0631,0.25128 2.5501243,2.5943536 0 0 1 -0.0874,0.2436 2.5501243,2.5943536 0 0 1 -0.11088,0.23351 2.5501243,2.5943536 0 0 1 -0.13324,0.22109 2.5501243,2.5943536 0 0 1 -0.15426,0.20644 2.5501243,2.5943536 0 0 1 -0.17376,0.18975 2.5501243,2.5943536 0 0 1 -0.1915,0.17115 2.5501243,2.5943536 0 0 1 -0.20735,0.15084 2.5501243,2.5943536 0 0 1 -0.22111,0.12904 2.5501243,2.5943536 0 0 1 -0.23267,0.10594 2.5501243,2.5943536 0 0 1 -0.24189,0.0817 2.5501243,2.5943536 0 0 1 -0.24874,0.0568 2.5501243,2.5943536 0 0 1 -0.25305,0.0312 2.5501243,2.5943536 0 0 1 -0.18038,0.007 2.5501243,2.5943536 0 0 1 -0.25459,-0.0129 2.5501243,2.5943536 0 0 1 -0.25205,-0.0387 2.5501243,2.5943536 0 0 1 -0.24698,-0.0642 2.5501243,2.5943536 0 0 1 -0.23945,-0.089 2.5501243,2.5943536 0 0 1 -0.22952,-0.1128 2.5501243,2.5943536 0 0 1 -0.21732,-0.13556 2.5501243,2.5943536 0 0 1 -0.20292,-0.15694 2.5501243,2.5943536 0 0 1 -0.18651,-0.17676 2.5501243,2.5943536 0 0 1 -0.16825,-0.19483 2.5501243,2.5943536 0 0 1 -0.14828,-0.21094 2.5501243,2.5943536 0 0 1 -0.12682,-0.22495 2.5501243,2.5943536 0 0 1 -0.10413,-0.23669 2.5501243,2.5943536 0 0 1 -0.0803,-0.2461 2.5501243,2.5943536 0 0 1 -0.0558,-0.25304 2.5501243,2.5943536 0 0 1 -0.0307,-0.25743 2.5501243,2.5943536 0 0 1 -0.007,-0.18353 2.5501243,2.5943536 0 0 1 0.0127,-0.25899 2.5501243,2.5943536 0 0 1 0.0382,-0.25642 2.5501243,2.5943536 0 0 1 0.0631,-0.25127 2.5501243,2.5943536 0 0 1 0.0874,-0.2436 2.5501243,2.5943536 0 0 1 0.11087,-0.23351 2.5501243,2.5943536 0 0 1 0.13324,-0.22108 2.5501243,2.5943536 0 0 1 0.15426,-0.20646 2.5501243,2.5943536 0 0 1 0.17376,-0.18974 2.5501243,2.5943536 0 0 1 0.19151,-0.17115 2.5501243,2.5943536 0 0 1 0.20734,-0.15084 2.5501243,2.5943536 0 0 1 0.22111,-0.12904 2.5501243,2.5943536 0 0 1 0.23267,-0.10593 2.5501243,2.5943536 0 0 1 0.2419,-0.0817 2.5501243,2.5943536 0 0 1 0.24872,-0.0568 2.5501243,2.5943536 0 0 1 0.25306,-0.0312 2.5501243,2.5943536 0 0 1 0.18039,-0.007 z"
         style="fill:#532ca2;fill-opacity:1;stroke-width:0.03242772" />
      <text
         inkscape:export-ydpi="96"
         inkscape:export-xdpi="96"
         transform="scale(0.98717111,1.0129956)"
         id="text266"
         y="229.47603"
         x="232.68274"
         style="font-style:normal;font-variant:normal;font-weight:normal;font-stretch:normal;font-size:4.74551153px;line-height:1.25;font-family:Waree;-inkscape-font-specification:Waree;letter-spacing:0px;word-spacing:0px;fill:#532ca2;fill-opacity:1;stroke:none;stroke-width:0.11863775"
         xml:space="preserve"><tspan
           style="fill:#532ca2;fill-opacity:1;stroke-width:0.11863775"
           y="229.47603"
           x="232.68274"
           id="tspan264"
           sodipodi:role="line">R</tspan></text>
      <path
         inkscape:export-ydpi="96"
         inkscape:export-xdpi="96"
         inkscape:connector-curvature="0"
         id="path62"
         d="m 4.416111,237.71417 v 23.47471 h 9.927358 c 0.462501,0 0.911658,-0.0159 1.347277,-0.0472 0.435639,-0.0313 0.857903,-0.0783 1.266659,-0.14119 0.408745,-0.0628 0.803818,-0.14104 1.18571,-0.23521 0.381873,-0.0941 0.750391,-0.20399 1.1054,-0.32953 0.35501,-0.12553 0.696635,-0.26698 1.024781,-0.4239 0.328146,-0.15691 0.642889,-0.32926 0.944161,-0.51755 0.301283,-0.1883 0.589172,-0.3926 0.863552,-0.61227 0.274419,-0.2197 0.535406,-0.45486 0.782942,-0.70593 0.250771,-0.25454 0.485821,-0.5228 0.705248,-0.80481 0.219437,-0.28202 0.423134,-0.57783 0.611207,-0.8873 0.188102,-0.30948 0.360407,-0.63284 0.517156,-0.96977 0.156748,-0.33693 0.298028,-0.6875 0.423423,-1.05188 0.125424,-0.36441 0.234973,-0.74253 0.329024,-1.13438 0.09405,-0.39186 0.172605,-0.79752 0.235302,-1.21685 0.06267,-0.41932 0.10953,-0.85218 0.140922,-1.29896 0.03138,-0.44678 0.04712,-0.90755 0.04712,-1.38179 0,-0.47075 -0.01593,-0.92766 -0.04712,-1.37095 -0.03129,-0.44329 -0.07831,-0.87266 -0.140922,-1.28847 -0.06267,-0.41585 -0.14127,-0.818 -0.235302,-1.20638 -0.09405,-0.38837 -0.203639,-0.76297 -0.329024,-1.12389 -0.125434,-0.36091 -0.266675,-0.70831 -0.423423,-1.04175 -0.156749,-0.33345 -0.329054,-0.65295 -0.517156,-0.95894 -0.188073,-0.30598 -0.39177,-0.59827 -0.611207,-0.87681 -0.219427,-0.27853 -0.454477,-0.54361 -0.705248,-0.79468 -0.25079,-0.25455 -0.514616,-0.49298 -0.791459,-0.71572 -0.276842,-0.22273 -0.566885,-0.42973 -0.86978,-0.62064 -0.302904,-0.19093 -0.618796,-0.3658 -0.947772,-0.5249 -0.328957,-0.1591 -0.670757,-0.30222 -1.025766,-0.4295 -0.355,-0.12727 -0.723363,-0.23862 -1.104425,-0.33409 -0.381071,-0.0954 -0.774966,-0.17504 -1.18208,-0.23868 -0.407143,-0.0637 -0.827254,-0.11151 -1.260439,-0.14328 -0.433176,-0.0317 -0.879523,-0.0476 -1.338761,-0.0476 z"
         style="fill:#532ca2;fill-opacity:1;stroke-width:0.17327102" />
      <path
         inkscape:export-ydpi="96"
         inkscape:export-xdpi="96"
         inkscape:connector-curvature="0"
         id="path51"
         d="M 29.660922,220.64868 A 33.798519,35.529748 0 0 0 6.0452137,230.76784 h 8.2982553 c 0.755644,0 1.489339,0.0216 2.200989,0.0653 0.71166,0.0436 1.401237,0.10893 2.068922,0.19605 0.667696,0.0872 1.313462,0.19634 1.937164,0.3271 0.623731,0.13076 1.225359,0.2831 1.805096,0.45746 0.586265,0.17435 1.144769,0.36284 1.675665,0.56509 0.530877,0.20224 1.034273,0.41845 1.50981,0.6486 0.475528,0.23015 0.923189,0.47409 1.343348,0.73213 0.42014,0.25805 0.812712,0.53006 1.177484,0.81601 0.371318,0.28594 0.725391,0.5878 1.062507,0.90512 0.337087,0.31732 0.657296,0.65007 0.96021,0.99876 0.302895,0.34872 0.588621,0.71307 0.857323,1.09314 0.268703,0.38009 0.520246,0.77602 0.754746,1.18749 0.234491,0.40451 0.451185,0.81235 0.64988,1.22384 0.198666,0.41147 0.379526,0.8267 0.542378,1.24515 0.162841,0.41844 0.307529,0.84035 0.434556,1.26575 0.127066,0.42543 0.2362,0.85435 0.327403,1.28674 0.182385,0.86478 0.319097,1.76791 0.4103,2.70944 0.09115,0.94148 0.137011,1.92112 0.137011,2.93934 0,0.73577 -0.02501,1.45154 -0.07503,2.14676 -0.05012,0.69524 -0.125289,1.37012 -0.225472,2.02481 -0.100153,0.65471 -0.225326,1.28905 -0.375557,1.90321 -0.15025,0.61414 -0.325375,1.20796 -0.525682,1.78157 -0.200308,0.57361 -0.425712,1.12724 -0.676097,1.66031 -0.250384,0.53309 -0.52573,1.0458 -0.826192,1.53835 -0.300442,0.49255 -0.626058,0.96474 -0.976596,1.41674 -0.350558,0.45201 -0.726106,0.88364 -1.126711,1.29512 -0.400625,0.41148 -0.829446,0.7974 -1.286647,1.15744 -0.45721,0.36004 -0.942935,0.69436 -1.456721,1.00297 -0.513805,0.3086 -1.055796,0.59134 -1.626176,0.84851 -0.570371,0.25717 -1.168938,0.48864 -1.795914,0.69438 -0.626975,0.20574 -1.282455,0.38597 -1.966016,0.54026 -0.683551,0.15432 -1.395288,0.28296 -2.135434,0.38583 -0.740145,0.10294 -1.508478,0.17991 -2.305199,0.23135 -0.79675,0.0515 -1.621967,0.0772 -2.475302,0.0772 H 4.416169 V 279.7364 A 33.798519,35.529748 0 0 0 29.66097,291.70812 33.798519,35.529748 0 0 0 63.459674,256.17856 33.798519,35.529748 0 0 0 29.66097,220.64867 Z"
         style="fill:#532ca2;fill-opacity:1;stroke-width:0.17327102" />
    </g>
  </g>
</svg>
