<?xml version="1.0" encoding="UTF-8" standalone="no"?>
<!-- Created with Inkscape (http://www.inkscape.org/) -->

<svg
   xmlns:dc="http://purl.org/dc/elements/1.1/"
   xmlns:cc="http://creativecommons.org/ns#"
   xmlns:rdf="http://www.w3.org/1999/02/22-rdf-syntax-ns#"
   xmlns:svg="http://www.w3.org/2000/svg"
   xmlns="http://www.w3.org/2000/svg"
   xmlns:sodipodi="http://sodipodi.sourceforge.net/DTD/sodipodi-0.dtd"
   xmlns:inkscape="http://www.inkscape.org/namespaces/inkscape"
   width="162.38499mm"
   height="62.605999mm"
   viewBox="0 0 162.385 62.605999"
   version="1.1"
   id="svg8"
   inkscape:version="0.92.3 (2405546, 2018-03-11)"
   sodipodi:docname="Opinta-white.svg"
   inkscape:export-filename="/home/coder-prans/Desktop/Opinta/drawing.svg.png"
   inkscape:export-xdpi="96"
   inkscape:export-ydpi="96">
  <defs
     id="defs2">
    <inkscape:path-effect
       effect="bspline"
       id="path-effect34"
       is_visible="true"
       weight="33.333333"
       steps="2"
       helper_size="0"
       apply_no_weight="true"
       apply_with_weight="true"
       only_selected="false" />
    <inkscape:perspective
       sodipodi:type="inkscape:persp3d"
       inkscape:vp_x="0 : 148.49996 : 1"
       inkscape:vp_y="0 : 999.9999 : 0"
       inkscape:vp_z="209.99998 : 148.49997 : 1"
       inkscape:persp3d-origin="105.00001 : 98.999992 : 1"
       id="perspective160" />
  </defs>
  <sodipodi:namedview
     id="base"
     pagecolor="#ffffff"
     bordercolor="#666666"
     borderopacity="1.0"
     inkscape:pageopacity="0.0"
     inkscape:pageshadow="2"
     inkscape:zoom="0.89603903"
     inkscape:cx="286.69005"
     inkscape:cy="180.49669"
     inkscape:document-units="mm"
     inkscape:current-layer="layer1"
     showgrid="false"
     inkscape:window-width="1318"
     inkscape:window-height="742"
     inkscape:window-x="0"
     inkscape:window-y="26"
     inkscape:window-maximized="1"
     units="mm"
     height="3.125in" />
  <metadata
     id="metadata5">
    <rdf:RDF>
      <cc:Work
         rdf:about="">
        <dc:format>image/svg+xml</dc:format>
        <dc:type
           rdf:resource="http://purl.org/dc/dcmitype/StillImage" />
        <dc:title />
      </cc:Work>
    </rdf:RDF>
  </metadata>
  <g
     inkscape:label="Layer 1"
     inkscape:groupmode="layer"
     id="layer1"
     transform="translate(0,-234.39407)">
    <text
       xml:space="preserve"
       style="font-style:normal;font-weight:normal;font-size:10.58333302px;line-height:1.25;font-family:sans-serif;letter-spacing:0px;word-spacing:0px;fill:#000000;fill-opacity:1;stroke:none;stroke-width:0.26458332"
       x="21.166666"
       y="173.0238"
       id="text22"><tspan
         sodipodi:role="line"
         id="tspan20"
         x="21.166666"
         y="182.38757"
         style="stroke-width:0.26458332" /></text>
    <flowRoot
       xml:space="preserve"
       id="flowRoot24"
       style="font-style:normal;font-weight:normal;font-size:40px;line-height:1.25;font-family:sans-serif;letter-spacing:0px;word-spacing:0px;fill:#000000;fill-opacity:1;stroke:none"><flowRegion
         id="flowRegion26"><rect
           id="rect28"
           width="182.85715"
           height="48.57143"
           x="342.85715"
           y="488.23398" /></flowRegion><flowPara
         id="flowPara30" /></flowRoot>    <flowRoot
       xml:space="preserve"
       id="flowRoot32"
       style="font-style:normal;font-weight:normal;font-size:40px;line-height:1.25;font-family:sans-serif;letter-spacing:0px;word-spacing:0px;fill:#000000;fill-opacity:1;stroke:none"><flowRegion
         id="flowRegion34"><rect
           id="rect36"
           width="254.28572"
           height="154.28572"
           x="317.14285"
           y="422.51968" /></flowRegion><flowPara
         id="flowPara38" /></flowRoot>    <flowRoot
       xml:space="preserve"
       id="flowRoot66"
       style="font-style:normal;font-weight:normal;font-size:40px;line-height:1.25;font-family:sans-serif;letter-spacing:0px;word-spacing:0px;fill:#000000;fill-opacity:1;stroke:none"><flowRegion
         id="flowRegion68"><rect
           id="rect70"
           width="382.85715"
           height="137.14285"
           x="328.57144"
           y="171.09111" /></flowRegion><flowPara
         id="flowPara72" /></flowRoot>    <flowRoot
       xml:space="preserve"
       id="flowRoot840"
       style="font-style:normal;font-variant:normal;font-weight:normal;font-stretch:normal;font-size:40px;line-height:1.25;font-family:Waree;-inkscape-font-specification:Waree;letter-spacing:0px;word-spacing:0px;fill:#000000;fill-opacity:1;stroke:none"><flowRegion
         id="flowRegion842"><rect
           id="rect844"
           width="537.14288"
           height="102.85714"
           x="240"
           y="174.28572" /></flowRegion><flowPara
         id="flowPara846" /></flowRoot>    <path
       style="fill:#ffffff;fill-opacity:1;stroke-width:0.15923809"
       d="m 0,249.42918 v 20.68221 h 9.516528 c 0.443368,0 0.873924,-0.014 1.291523,-0.0416 0.41761,-0.0276 0.822397,-0.069 1.214239,-0.12439 0.391831,-0.0554 0.770553,-0.12425 1.136647,-0.20722 0.366062,-0.0829 0.719333,-0.17972 1.059648,-0.29034 0.340325,-0.11058 0.667818,-0.23521 0.982374,-0.37347 0.314567,-0.13824 0.616281,-0.29009 0.90509,-0.45597 0.288819,-0.16591 0.564785,-0.34591 0.827815,-0.53945 0.263061,-0.19356 0.513248,-0.40075 0.75054,-0.62195 0.240396,-0.22426 0.465716,-0.46061 0.676062,-0.70907 0.210357,-0.24848 0.405627,-0.5091 0.585914,-0.78176 0.180317,-0.27265 0.345497,-0.55755 0.495755,-0.8544 0.150268,-0.29686 0.285695,-0.60572 0.405903,-0.92676 0.120229,-0.32106 0.225248,-0.65419 0.315397,-0.99944 0.09023,-0.34524 0.165467,-0.70264 0.225576,-1.07209 0.06012,-0.36944 0.104999,-0.75081 0.135089,-1.14443 0.03011,-0.39364 0.04517,-0.7996 0.04517,-1.21742 0,-0.41475 -0.01526,-0.81732 -0.04517,-1.20786 -0.03001,-0.39056 -0.07507,-0.76886 -0.135089,-1.1352 -0.06012,-0.36638 -0.135428,-0.72069 -0.225576,-1.06288 -0.09013,-0.34217 -0.195199,-0.67221 -0.315397,-0.99019 -0.120239,-0.31799 -0.255635,-0.62406 -0.405903,-0.91783 -0.150258,-0.29378 -0.315438,-0.57528 -0.495755,-0.84487 -0.180287,-0.26957 -0.375557,-0.5271 -0.585914,-0.7725 -0.210346,-0.24539 -0.435666,-0.47894 -0.676062,-0.70016 -0.240406,-0.22425 -0.493317,-0.43433 -0.758703,-0.63057 -0.265386,-0.19624 -0.543431,-0.37861 -0.833786,-0.54681 -0.290376,-0.16822 -0.593195,-0.32229 -0.908551,-0.46245 -0.315346,-0.14019 -0.643002,-0.26628 -0.983317,-0.37841 -0.340304,-0.11214 -0.693421,-0.21024 -1.058726,-0.29435 -0.365295,-0.0841 -0.74289,-0.15422 -1.133165,-0.21029 -0.390284,-0.056 -0.793013,-0.0983 -1.208267,-0.12624 -0.415255,-0.0279 -0.843127,-0.042 -1.283361,-0.042 z"
       id="path62-3"
       inkscape:connector-curvature="0"
       inkscape:export-xdpi="96"
       inkscape:export-ydpi="96" />
    <path
       style="fill:#ffffff;fill-opacity:1;stroke-width:0.15923809"
       d="m 24.200102,234.39376 a 32.399829,31.303223 0 0 0 -22.63842,8.9154 h 7.954846 c 0.724373,0 1.427699,0.019 2.109906,0.0575 0.682207,0.0384 1.343244,0.0959 1.983306,0.17273 0.640062,0.0769 1.259108,0.17298 1.856994,0.28819 0.597917,0.1152 1.174654,0.24942 1.730396,0.40304 0.561998,0.15362 1.097389,0.31968 1.606315,0.49787 0.508916,0.17819 0.991469,0.36868 1.447332,0.57145 0.455853,0.20277 0.884985,0.41769 1.287765,0.64503 0.402749,0.22735 0.779074,0.467 1.12875,0.71894 0.355954,0.25193 0.695368,0.51787 1.018538,0.79744 0.323139,0.27958 0.630097,0.57276 0.920472,0.87996 0.290356,0.30724 0.564263,0.62824 0.821844,0.9631 0.257592,0.33488 0.498715,0.68371 0.723513,1.04623 0.224787,0.35639 0.432511,0.71572 0.622989,1.07826 0.190436,0.36252 0.363809,0.72836 0.519936,1.09703 0.156095,0.36867 0.2948,0.74039 0.416565,1.11518 0.121806,0.37482 0.226426,0.75272 0.31386,1.13368 0.174828,0.7619 0.305882,1.55759 0.393316,2.38712 0.08736,0.82948 0.131341,1.69259 0.131341,2.58968 0,0.64825 -0.02397,1.27887 -0.0719,1.89139 -0.04803,0.61254 -0.120106,1.20713 -0.216143,1.78395 -0.09597,0.57682 -0.216,1.13571 -0.36001,1.67681 -0.144031,0.54108 -0.311915,1.06427 -0.503928,1.56963 -0.192024,0.50538 -0.408106,0.99316 -0.648123,1.46282 -0.240027,0.46967 -0.503968,0.92138 -0.791999,1.35533 -0.28801,0.43397 -0.60015,0.84998 -0.936183,1.24821 -0.336055,0.39825 -0.696065,0.77853 -1.080081,1.14106 -0.384048,0.36253 -0.795124,0.70255 -1.233401,1.01976 -0.438299,0.31721 -0.903912,0.61176 -1.396441,0.88365 -0.492539,0.2719 -1.012096,0.52101 -1.558875,0.74759 -0.54677,0.22656 -1.120567,0.43051 -1.721598,0.61177 -0.60102,0.18127 -1.229376,0.34006 -1.884647,0.47599 -0.655271,0.13597 -1.33755,0.24931 -2.047072,0.33993 -0.709512,0.0906 -1.446052,0.15851 -2.209804,0.20383 -0.763773,0.0454 -1.55484,0.068 -2.372864,0.068 H 6.9e-5 v 10.22118 a 32.399829,31.303223 0 0 0 24.200102,10.54758 32.399829,31.303223 0 0 0 32.400004,-31.30305 32.399829,31.303223 0 0 0 -32.400004,-31.30335 z"
       id="path51-6"
       inkscape:connector-curvature="0"
       inkscape:export-xdpi="96"
       inkscape:export-ydpi="96" />
    <text
       xml:space="preserve"
       style="font-style:normal;font-variant:normal;font-weight:normal;font-stretch:normal;font-size:25.39999962px;line-height:1.25;font-family:'Noto Sans';-inkscape-font-specification:'Noto Sans';letter-spacing:0px;word-spacing:0px;fill:#ffffff;fill-opacity:1;stroke:none;stroke-width:0.26458332;"
       x="72.33831"
       y="275.76437"
       id="text842"><tspan
         sodipodi:role="line"
         id="tspan840"
         x="72.33831"
         y="275.76437"
         style="font-style:normal;font-variant:normal;font-weight:normal;font-stretch:normal;font-size:28.92777824px;font-family:'Noto Sans';-inkscape-font-specification:'Noto Sans';fill:#ffffff;fill-opacity:1;stroke-width:0.26458332;">Opinta</tspan></text>
  </g>
</svg>
